M48
;DRILL file {KiCad 4.0.6} date 06/15/17 21:01:43
;FORMAT={-:-/ absolute / metric / decimal}
FMAT,2
METRIC,TZ
T1C0.700
T2C0.762
T3C0.800
T4C0.900
T5C1.000
T6C1.100
T7C1.200
T8C1.600
T9C2.530
%
G90
G05
M71
T1
X131.38Y-86.5
X139.Y-86.5
X153.Y-91.
X153.Y-98.62
T2
X195.5Y-86.54
X195.5Y-91.62
X195.5Y-96.7
X195.5Y-101.78
T3
X122.46Y-93.
X125.Y-93.
X125.5Y-75.9
X127.54Y-93.
X130.48Y-64.9
X130.48Y-72.52
X130.5Y-75.9
X133.02Y-64.9
X133.02Y-72.52
X134.5Y-80.
X135.56Y-64.9
X135.56Y-72.52
X137.Y-80.
X138.1Y-64.9
X138.1Y-72.52
X142.5Y-76.5
X142.5Y-86.66
X142.5Y-90.46
X142.5Y-93.
X142.5Y-95.54
X145.3Y-67.1
X145.3Y-72.1
X146.Y-119.
X146.46Y-112.
X149.Y-112.
X151.46Y-67.88
X151.46Y-75.5
X151.54Y-112.
X153.3Y-109.3
X154.Y-67.88
X154.Y-75.5
X156.16Y-119.
X156.54Y-67.88
X156.54Y-75.5
X157.Y-101.5
X159.08Y-67.88
X159.08Y-75.5
X160.Y-92.
X160.Y-97.
X160.Y-114.46
X160.Y-117.
X160.Y-119.54
X162.Y-101.5
X163.46Y-109.3
X169.92Y-125.5
X172.46Y-125.5
X175.Y-125.5
X187.7Y-125.7
X192.7Y-125.7
T4
X146.3Y-105.5
X159.Y-105.5
X181.Y-123.46
X181.Y-126.
X181.7Y-87.36
X181.7Y-89.9
T5
X127.Y-81.5
X127.Y-86.5
X187.62Y-121.7
X190.16Y-121.7
X192.7Y-121.7
X194.072Y-67.868
X194.072Y-70.408
X194.072Y-72.948
T6
X189.5Y-64.
X189.5Y-76.7
T7
X116.1Y-124.5
X133.5Y-91.18
X133.5Y-111.5
X137.18Y-61.5
X140.5Y-99.
X140.5Y-119.32
X141.5Y-124.5
X146.18Y-124.5
X147.6Y-87.
X157.5Y-61.5
X162.5Y-60.
X162.5Y-80.32
X166.5Y-94.
X166.5Y-119.4
X166.5Y-124.5
X169.Y-60.
X169.Y-80.32
X173.Y-87.
X173.5Y-94.
X173.5Y-119.4
X176.Y-60.18
X176.Y-80.5
X180.5Y-94.
X180.5Y-119.4
X183.Y-60.18
X183.Y-80.5
X187.5Y-96.68
X187.5Y-117.
T8
X125.5Y-99.5
X125.5Y-119.5
T9
X195.5Y-84.
T0
M30
