G04 #@! TF.FileFunction,Copper,L1,Top,Signal*
%FSLAX46Y46*%
G04 Gerber Fmt 4.6, Leading zero omitted, Abs format (unit mm)*
G04 Created by KiCad (PCBNEW 4.0.6) date 06/15/17 21:01:38*
%MOMM*%
%LPD*%
G01*
G04 APERTURE LIST*
%ADD10C,0.100000*%
%ADD11C,2.400000*%
%ADD12O,2.400000X2.400000*%
%ADD13C,1.440000*%
%ADD14R,3.200000X3.200000*%
%ADD15O,3.200000X3.200000*%
%ADD16C,1.520000*%
%ADD17R,1.520000X1.520000*%
%ADD18R,2.200000X2.200000*%
%ADD19O,2.200000X2.200000*%
%ADD20C,1.524000*%
%ADD21C,2.530000*%
%ADD22R,1.800000X1.800000*%
%ADD23O,1.800000X1.800000*%
%ADD24C,1.600000*%
%ADD25C,1.800000*%
%ADD26C,1.400000*%
%ADD27O,1.400000X1.400000*%
%ADD28C,2.000000*%
%ADD29R,1.600000X1.600000*%
%ADD30O,1.600000X1.600000*%
%ADD31C,0.200000*%
%ADD32C,0.500000*%
%ADD33C,0.600000*%
%ADD34C,0.254000*%
G04 APERTURE END LIST*
D10*
D11*
X183000000Y-80500000D03*
D12*
X183000000Y-60180000D03*
D13*
X127540000Y-93000000D03*
X125000000Y-93000000D03*
X122460000Y-93000000D03*
D14*
X125500000Y-119500000D03*
D15*
X125500000Y-99500000D03*
D16*
X142500000Y-93000000D03*
X142500000Y-95540000D03*
D17*
X142500000Y-90460000D03*
D11*
X133500000Y-91180000D03*
D12*
X133500000Y-111500000D03*
D11*
X141500000Y-124500000D03*
D12*
X116100000Y-124500000D03*
D11*
X140500000Y-99000000D03*
D12*
X140500000Y-119320000D03*
D11*
X176000000Y-80500000D03*
D12*
X176000000Y-60180000D03*
D18*
X189500000Y-76700000D03*
D19*
X189500000Y-64000000D03*
D20*
X195500000Y-101780000D03*
X195500000Y-96700000D03*
X195500000Y-91620000D03*
X195500000Y-86540000D03*
D21*
X195500000Y-84000000D03*
D22*
X194072255Y-72947651D03*
D23*
X194072255Y-70407651D03*
X194072255Y-67867651D03*
D11*
X180500000Y-119400000D03*
D12*
X180500000Y-94000000D03*
D24*
X192700000Y-125700000D03*
X187700000Y-125700000D03*
D22*
X181000000Y-126000000D03*
D25*
X181000000Y-123460000D03*
D11*
X166500000Y-119400000D03*
D12*
X166500000Y-94000000D03*
D16*
X172460000Y-125500000D03*
X175000000Y-125500000D03*
D17*
X169920000Y-125500000D03*
D11*
X173500000Y-94000000D03*
D12*
X173500000Y-119400000D03*
D11*
X187500000Y-117000000D03*
D12*
X187500000Y-96680000D03*
D22*
X187620000Y-121700000D03*
D23*
X190160000Y-121700000D03*
X192700000Y-121700000D03*
D26*
X139000000Y-86500000D03*
D27*
X131380000Y-86500000D03*
D28*
X127000000Y-86500000D03*
X127000000Y-81500000D03*
D24*
X145300000Y-67100000D03*
X145300000Y-72100000D03*
D29*
X134500000Y-80000000D03*
D24*
X137000000Y-80000000D03*
X130500000Y-75900000D03*
X125500000Y-75900000D03*
D11*
X137180000Y-61500000D03*
D12*
X157500000Y-61500000D03*
D24*
X142500000Y-76500000D03*
D30*
X142500000Y-86660000D03*
D29*
X138100000Y-64900000D03*
D30*
X130480000Y-72520000D03*
X135560000Y-64900000D03*
X133020000Y-72520000D03*
X133020000Y-64900000D03*
X135560000Y-72520000D03*
X130480000Y-64900000D03*
X138100000Y-72520000D03*
D26*
X153000000Y-91000000D03*
D27*
X153000000Y-98620000D03*
D24*
X160000000Y-92000000D03*
X160000000Y-97000000D03*
D11*
X169000000Y-60000000D03*
D12*
X169000000Y-80320000D03*
D11*
X147600000Y-87000000D03*
D12*
X173000000Y-87000000D03*
D11*
X162500000Y-60000000D03*
D12*
X162500000Y-80320000D03*
D29*
X151460000Y-75500000D03*
D30*
X159080000Y-67880000D03*
X154000000Y-75500000D03*
X156540000Y-67880000D03*
X156540000Y-75500000D03*
X154000000Y-67880000D03*
X159080000Y-75500000D03*
X151460000Y-67880000D03*
D24*
X162000000Y-101500000D03*
X157000000Y-101500000D03*
D22*
X159000000Y-105500000D03*
D23*
X146300000Y-105500000D03*
D16*
X160000000Y-117000000D03*
X160000000Y-119540000D03*
D17*
X160000000Y-114460000D03*
D24*
X153300000Y-109300000D03*
D30*
X163460000Y-109300000D03*
D16*
X149000000Y-112000000D03*
X146460000Y-112000000D03*
D17*
X151540000Y-112000000D03*
D11*
X166500000Y-124500000D03*
D12*
X146180000Y-124500000D03*
D24*
X146000000Y-119000000D03*
D30*
X156160000Y-119000000D03*
D22*
X181700000Y-89900000D03*
D25*
X181700000Y-87360000D03*
D31*
X162500000Y-80320000D02*
X162500000Y-89500000D01*
X162500000Y-89500000D02*
X160000000Y-92000000D01*
D32*
X190160000Y-123240000D02*
X190160000Y-121700000D01*
D31*
X125000000Y-93000000D02*
X125000000Y-88500000D01*
X125000000Y-88500000D02*
X127000000Y-86500000D01*
X131500000Y-79100000D02*
X132400000Y-80000000D01*
X132400000Y-80000000D02*
X134500000Y-80000000D01*
X131500000Y-78031370D02*
X131500000Y-79100000D01*
X130500000Y-75900000D02*
X130500000Y-77031370D01*
X130500000Y-77031370D02*
X131500000Y-78031370D01*
X130500000Y-75900000D02*
X130500000Y-72540000D01*
X130500000Y-72540000D02*
X130480000Y-72520000D01*
X134500000Y-80000000D02*
X134500000Y-79000000D01*
X148308630Y-69900000D02*
X140720000Y-69900000D01*
X140720000Y-69900000D02*
X138100000Y-72520000D01*
X151460000Y-67880000D02*
X150328630Y-67880000D01*
X150328630Y-67880000D02*
X148308630Y-69900000D01*
X159080000Y-75500000D02*
X151460000Y-67880000D01*
X162700000Y-66480000D02*
X162700000Y-71880000D01*
X162700000Y-71880000D02*
X159080000Y-75500000D01*
X169000000Y-60180000D02*
X162700000Y-66480000D01*
X137700000Y-77900000D02*
X135600000Y-77900000D01*
X135600000Y-77900000D02*
X134500000Y-79000000D01*
X138900000Y-79100000D02*
X137700000Y-77900000D01*
X138900000Y-85410051D02*
X138900000Y-79100000D01*
X139000000Y-86500000D02*
X139000000Y-85510051D01*
X139000000Y-85510051D02*
X138900000Y-85410051D01*
X192700000Y-121700000D02*
X192700000Y-122972792D01*
X192700000Y-122972792D02*
X192700000Y-125700000D01*
X137000000Y-80000000D02*
X137000000Y-92000000D01*
X137000000Y-92000000D02*
X138100000Y-93100000D01*
X138100000Y-93100000D02*
X138100000Y-96600000D01*
X138100000Y-96600000D02*
X140500000Y-99000000D01*
X138200000Y-93000000D02*
X138100000Y-93100000D01*
X142500000Y-93000000D02*
X138200000Y-93000000D01*
X151540000Y-112000000D02*
X155100000Y-112000000D01*
X155100000Y-112000000D02*
X155100000Y-111968616D01*
X155100000Y-111968616D02*
X157100000Y-109968616D01*
X157100000Y-109968616D02*
X157100000Y-106300000D01*
X157900000Y-105500000D02*
X159000000Y-105500000D01*
X157100000Y-106300000D02*
X157900000Y-105500000D01*
X162000000Y-101500000D02*
X153000000Y-92500000D01*
X153000000Y-92500000D02*
X153000000Y-91000000D01*
X159000000Y-105500000D02*
X159000000Y-104400000D01*
X159000000Y-104400000D02*
X161900000Y-101500000D01*
X161900000Y-101500000D02*
X162000000Y-101500000D01*
X141027208Y-101500000D02*
X127500000Y-101500000D01*
X127500000Y-101500000D02*
X125500000Y-99500000D01*
X146300000Y-105500000D02*
X145027208Y-105500000D01*
X145027208Y-105500000D02*
X141027208Y-101500000D01*
X181700000Y-89900000D02*
X181699999Y-92800001D01*
X181699999Y-92800001D02*
X180500000Y-94000000D01*
X189500000Y-76700000D02*
X189500000Y-75400000D01*
X189500000Y-75400000D02*
X191952349Y-72947651D01*
X191952349Y-72947651D02*
X192972255Y-72947651D01*
X192972255Y-72947651D02*
X194072255Y-72947651D01*
X195500000Y-91620000D02*
X189500000Y-85620000D01*
X189500000Y-85620000D02*
X189500000Y-76700000D01*
X180500000Y-94000000D02*
X193120000Y-94000000D01*
X193120000Y-94000000D02*
X195500000Y-91620000D01*
X173500000Y-94000000D02*
X180140000Y-87360000D01*
X180140000Y-87360000D02*
X181700000Y-87360000D01*
X180500000Y-119400000D02*
X180500000Y-122960000D01*
X180500000Y-122960000D02*
X181000000Y-123460000D01*
D32*
X166300000Y-112140000D02*
X163460000Y-109300000D01*
X166300000Y-117502944D02*
X166300000Y-112140000D01*
X166500000Y-119400000D02*
X166500000Y-117702944D01*
X166500000Y-117702944D02*
X166300000Y-117502944D01*
X187500000Y-117000000D02*
X195500000Y-109000000D01*
X195500000Y-109000000D02*
X195500000Y-101780000D01*
X166500000Y-119400000D02*
X173500000Y-119400000D01*
X187500000Y-117000000D02*
X175900000Y-117000000D01*
X175900000Y-117000000D02*
X173500000Y-119400000D01*
X187500000Y-117000000D02*
X187500000Y-121580000D01*
X187500000Y-121580000D02*
X187620000Y-121700000D01*
D33*
X187960000Y-117460000D02*
X187500000Y-117000000D01*
D31*
X195500000Y-96700000D02*
X198300000Y-93900000D01*
X198300000Y-93900000D02*
X198300000Y-72095396D01*
X198300000Y-72095396D02*
X194972254Y-68767650D01*
X194972254Y-68767650D02*
X194072255Y-67867651D01*
X195500000Y-96700000D02*
X187520000Y-96700000D01*
X187520000Y-96700000D02*
X187500000Y-96680000D01*
X140500000Y-119320000D02*
X141699999Y-118120001D01*
X141699999Y-118120001D02*
X142879999Y-118120001D01*
X142879999Y-118120001D02*
X148240001Y-112759999D01*
X148240001Y-112759999D02*
X149000000Y-112000000D01*
X172460000Y-125500000D02*
X170999999Y-126960001D01*
X170999999Y-126960001D02*
X167262945Y-126960001D01*
X167262945Y-126960001D02*
X166500000Y-126197056D01*
X166500000Y-126197056D02*
X166500000Y-124500000D01*
X166500000Y-94000000D02*
X168400001Y-92099999D01*
X168400001Y-92099999D02*
X171400001Y-92099999D01*
X171400001Y-92099999D02*
X181800001Y-81699999D01*
X181800001Y-81699999D02*
X183000000Y-80500000D01*
X160700000Y-108700000D02*
X166500000Y-102900000D01*
X166500000Y-102900000D02*
X166500000Y-94000000D01*
X159500000Y-108700000D02*
X160700000Y-108700000D01*
X158300000Y-109900000D02*
X159500000Y-108700000D01*
X158300000Y-110500000D02*
X158300000Y-109900000D01*
X159900000Y-112100000D02*
X158300000Y-110500000D01*
X160500000Y-112100000D02*
X159900000Y-112100000D01*
X163900000Y-115500000D02*
X160500000Y-112100000D01*
X163900000Y-119612002D02*
X163900000Y-115500000D01*
X166880000Y-121500000D02*
X165787998Y-121500000D01*
X165787998Y-121500000D02*
X163900000Y-119612002D01*
X169920000Y-125500000D02*
X169920000Y-124540000D01*
X169920000Y-124540000D02*
X166880000Y-121500000D01*
X142500000Y-86660000D02*
X142500000Y-87791370D01*
X142500000Y-87791370D02*
X142500000Y-90460000D01*
X160000000Y-117000000D02*
X155939998Y-117000000D01*
X155939998Y-117000000D02*
X150100000Y-122839998D01*
X150100000Y-122839998D02*
X150100000Y-125100000D01*
X150100000Y-125100000D02*
X148300000Y-126900000D01*
X148300000Y-126900000D02*
X143900000Y-126900000D01*
X143900000Y-126900000D02*
X141500000Y-124500000D01*
X156160000Y-119000000D02*
X159460000Y-119000000D01*
X159460000Y-119000000D02*
X160000000Y-119540000D01*
X153399999Y-118200001D02*
X157140000Y-114460000D01*
X157140000Y-114460000D02*
X160000000Y-114460000D01*
X146000000Y-119000000D02*
X146799999Y-118200001D01*
X146799999Y-118200001D02*
X153399999Y-118200001D01*
X146000000Y-119000000D02*
X146000000Y-124320000D01*
X146000000Y-124320000D02*
X146180000Y-124500000D01*
X169000000Y-80500000D02*
X176000000Y-80500000D01*
X154000000Y-67880000D02*
X161880000Y-60000000D01*
X161880000Y-60000000D02*
X162500000Y-60000000D01*
X125700000Y-62700000D02*
X133360000Y-62700000D01*
X133360000Y-62700000D02*
X135560000Y-64900000D01*
X123999999Y-64400001D02*
X125700000Y-62700000D01*
X126716002Y-78700000D02*
X126079998Y-78700000D01*
X126079998Y-78700000D02*
X123999999Y-76620001D01*
X123999999Y-76620001D02*
X123999999Y-64400001D01*
X129500000Y-83630051D02*
X129500000Y-81483998D01*
X129500000Y-81483998D02*
X126716002Y-78700000D01*
X131380000Y-86500000D02*
X131380000Y-85510051D01*
X131380000Y-85510051D02*
X129500000Y-83630051D01*
X133500000Y-91180000D02*
X131380000Y-89060000D01*
X131380000Y-89060000D02*
X131380000Y-86500000D01*
X148500000Y-92900000D02*
X148500000Y-106600000D01*
X148500000Y-106600000D02*
X151200000Y-109300000D01*
X151200000Y-109300000D02*
X153300000Y-109300000D01*
X139300000Y-69100000D02*
X138980000Y-69100000D01*
X138980000Y-69100000D02*
X135560000Y-72520000D01*
X140900000Y-67500000D02*
X139300000Y-69100000D01*
X140900000Y-63522944D02*
X140900000Y-67500000D01*
X137180000Y-61500000D02*
X138877056Y-61500000D01*
X138877056Y-61500000D02*
X140900000Y-63522944D01*
X144700000Y-88100000D02*
X144700000Y-81660000D01*
X144700000Y-81660000D02*
X135560000Y-72520000D01*
X148500000Y-91900000D02*
X144700000Y-88100000D01*
X148500000Y-92900000D02*
X148500000Y-92700000D01*
X148500000Y-92900000D02*
X148500000Y-91900000D01*
X122460000Y-93000000D02*
X116100000Y-99360000D01*
X116100000Y-99360000D02*
X116100000Y-124500000D01*
X145831370Y-78700000D02*
X153340000Y-78700000D01*
X153340000Y-78700000D02*
X156540000Y-75500000D01*
X142500000Y-76500000D02*
X143631370Y-76500000D01*
X143631370Y-76500000D02*
X145831370Y-78700000D01*
D34*
G36*
X174637405Y-58779653D02*
X174219684Y-59404817D01*
X174073000Y-60142248D01*
X174073000Y-60217752D01*
X174219684Y-60955183D01*
X174637405Y-61580347D01*
X175262569Y-61998068D01*
X176000000Y-62144752D01*
X176737431Y-61998068D01*
X177362595Y-61580347D01*
X177780316Y-60955183D01*
X177852595Y-60591807D01*
X181211797Y-60591807D01*
X181505508Y-61244776D01*
X182026742Y-61735642D01*
X182588195Y-61968195D01*
X182873000Y-61851432D01*
X182873000Y-60307000D01*
X183127000Y-60307000D01*
X183127000Y-61851432D01*
X183411805Y-61968195D01*
X183973258Y-61735642D01*
X184494492Y-61244776D01*
X184788203Y-60591807D01*
X184671858Y-60307000D01*
X183127000Y-60307000D01*
X182873000Y-60307000D01*
X181328142Y-60307000D01*
X181211797Y-60591807D01*
X177852595Y-60591807D01*
X177927000Y-60217752D01*
X177927000Y-60142248D01*
X177780316Y-59404817D01*
X177362595Y-58779653D01*
X177258352Y-58710000D01*
X181935802Y-58710000D01*
X181505508Y-59115224D01*
X181211797Y-59768193D01*
X181328142Y-60053000D01*
X182873000Y-60053000D01*
X182873000Y-60033000D01*
X183127000Y-60033000D01*
X183127000Y-60053000D01*
X184671858Y-60053000D01*
X184788203Y-59768193D01*
X184494492Y-59115224D01*
X184064198Y-58710000D01*
X203790000Y-58710000D01*
X203790000Y-127290000D01*
X182408025Y-127290000D01*
X182438327Y-127259698D01*
X182535000Y-127026309D01*
X182535000Y-126707745D01*
X186871861Y-126707745D01*
X186945995Y-126953864D01*
X187483223Y-127146965D01*
X188053454Y-127119778D01*
X188454005Y-126953864D01*
X188528139Y-126707745D01*
X187700000Y-125879605D01*
X186871861Y-126707745D01*
X182535000Y-126707745D01*
X182535000Y-126285750D01*
X182376250Y-126127000D01*
X181127000Y-126127000D01*
X181127000Y-126147000D01*
X180873000Y-126147000D01*
X180873000Y-126127000D01*
X179623750Y-126127000D01*
X179465000Y-126285750D01*
X179465000Y-127026309D01*
X179561673Y-127259698D01*
X179591975Y-127290000D01*
X171839554Y-127290000D01*
X172148712Y-126980842D01*
X172162920Y-126986741D01*
X172754485Y-126987258D01*
X173301217Y-126761352D01*
X173584299Y-126478764D01*
X174200841Y-126478764D01*
X174270059Y-126720742D01*
X174792780Y-126907155D01*
X175347049Y-126879341D01*
X175729941Y-126720742D01*
X175799159Y-126478764D01*
X175000000Y-125679605D01*
X174200841Y-126478764D01*
X173584299Y-126478764D01*
X173719882Y-126343418D01*
X173773137Y-126215165D01*
X173779258Y-126229941D01*
X174021236Y-126299159D01*
X174820395Y-125500000D01*
X175179605Y-125500000D01*
X175978764Y-126299159D01*
X176220742Y-126229941D01*
X176407155Y-125707220D01*
X176379341Y-125152951D01*
X176220742Y-124770059D01*
X175978764Y-124700841D01*
X175179605Y-125500000D01*
X174820395Y-125500000D01*
X174021236Y-124700841D01*
X173779258Y-124770059D01*
X173773733Y-124785553D01*
X173721352Y-124658783D01*
X173584046Y-124521236D01*
X174200841Y-124521236D01*
X175000000Y-125320395D01*
X175799159Y-124521236D01*
X175729941Y-124279258D01*
X175207220Y-124092845D01*
X174652951Y-124120659D01*
X174270059Y-124279258D01*
X174200841Y-124521236D01*
X173584046Y-124521236D01*
X173303418Y-124240118D01*
X172757080Y-124013259D01*
X172165515Y-124012742D01*
X171618783Y-124238648D01*
X171373061Y-124483941D01*
X171370549Y-124470590D01*
X171211328Y-124223154D01*
X170968385Y-124057157D01*
X170680000Y-123998758D01*
X170533866Y-123998758D01*
X170504777Y-123955223D01*
X167585891Y-121036337D01*
X167590132Y-121034584D01*
X168132678Y-120492983D01*
X168180839Y-120377000D01*
X171854534Y-120377000D01*
X172137405Y-120800347D01*
X172762569Y-121218068D01*
X173500000Y-121364752D01*
X174237431Y-121218068D01*
X174862595Y-120800347D01*
X175280316Y-120175183D01*
X175427000Y-119437752D01*
X175427000Y-119362248D01*
X175342790Y-118938896D01*
X176304687Y-117977000D01*
X179197915Y-117977000D01*
X178867322Y-118307017D01*
X178573335Y-119015014D01*
X178572666Y-119781622D01*
X178865416Y-120490132D01*
X179407017Y-121032678D01*
X179673000Y-121143124D01*
X179673000Y-122485766D01*
X179621501Y-122537175D01*
X179373283Y-123134950D01*
X179372718Y-123782211D01*
X179619892Y-124380418D01*
X179783124Y-124543935D01*
X179740301Y-124561673D01*
X179561673Y-124740302D01*
X179465000Y-124973691D01*
X179465000Y-125714250D01*
X179623750Y-125873000D01*
X180873000Y-125873000D01*
X180873000Y-125853000D01*
X181127000Y-125853000D01*
X181127000Y-125873000D01*
X182376250Y-125873000D01*
X182535000Y-125714250D01*
X182535000Y-125483223D01*
X186253035Y-125483223D01*
X186280222Y-126053454D01*
X186446136Y-126454005D01*
X186692255Y-126528139D01*
X187520395Y-125700000D01*
X187879605Y-125700000D01*
X188707745Y-126528139D01*
X188953864Y-126454005D01*
X189146965Y-125916777D01*
X189119778Y-125346546D01*
X188953864Y-124945995D01*
X188707745Y-124871861D01*
X187879605Y-125700000D01*
X187520395Y-125700000D01*
X186692255Y-124871861D01*
X186446136Y-124945995D01*
X186253035Y-125483223D01*
X182535000Y-125483223D01*
X182535000Y-124973691D01*
X182438327Y-124740302D01*
X182390281Y-124692255D01*
X186871861Y-124692255D01*
X187700000Y-125520395D01*
X188528139Y-124692255D01*
X188454005Y-124446136D01*
X187916777Y-124253035D01*
X187346546Y-124280222D01*
X186945995Y-124446136D01*
X186871861Y-124692255D01*
X182390281Y-124692255D01*
X182259699Y-124561673D01*
X182217040Y-124544003D01*
X182378499Y-124382825D01*
X182626717Y-123785050D01*
X182627282Y-123137789D01*
X182380108Y-122539582D01*
X181922825Y-122081501D01*
X181327000Y-121834093D01*
X181327000Y-121143308D01*
X181590132Y-121034584D01*
X182132678Y-120492983D01*
X182426665Y-119784986D01*
X182427334Y-119018378D01*
X182134584Y-118309868D01*
X181802296Y-117977000D01*
X185818671Y-117977000D01*
X185865416Y-118090132D01*
X186407017Y-118632678D01*
X186523000Y-118680839D01*
X186523000Y-120095826D01*
X186450590Y-120109451D01*
X186203154Y-120268672D01*
X186037157Y-120511615D01*
X185978758Y-120800000D01*
X185978758Y-122600000D01*
X186029451Y-122869410D01*
X186188672Y-123116846D01*
X186431615Y-123282843D01*
X186720000Y-123341242D01*
X188520000Y-123341242D01*
X188789410Y-123290549D01*
X189036846Y-123131328D01*
X189202843Y-122888385D01*
X189203593Y-122884684D01*
X189252424Y-122937966D01*
X189795258Y-123191046D01*
X190033000Y-123070997D01*
X190033000Y-121827000D01*
X190013000Y-121827000D01*
X190013000Y-121573000D01*
X190033000Y-121573000D01*
X190033000Y-120329003D01*
X190287000Y-120329003D01*
X190287000Y-121573000D01*
X190307000Y-121573000D01*
X190307000Y-121827000D01*
X190287000Y-121827000D01*
X190287000Y-123070997D01*
X190524742Y-123191046D01*
X191067576Y-122937966D01*
X191361694Y-122617040D01*
X191517662Y-122850463D01*
X191873000Y-123087892D01*
X191873000Y-124389493D01*
X191836154Y-124404717D01*
X191406227Y-124833894D01*
X191173265Y-125394928D01*
X191172735Y-126002407D01*
X191404717Y-126563846D01*
X191833894Y-126993773D01*
X192394928Y-127226735D01*
X193002407Y-127227265D01*
X193563846Y-126995283D01*
X193993773Y-126566106D01*
X194226735Y-126005072D01*
X194227265Y-125397593D01*
X193995283Y-124836154D01*
X193566106Y-124406227D01*
X193527000Y-124389989D01*
X193527000Y-123087892D01*
X193882338Y-122850463D01*
X194235027Y-122322626D01*
X194358875Y-121700000D01*
X194235027Y-121077374D01*
X193882338Y-120549537D01*
X193354501Y-120196848D01*
X192731875Y-120073000D01*
X192668125Y-120073000D01*
X192045499Y-120196848D01*
X191517662Y-120549537D01*
X191361694Y-120782960D01*
X191067576Y-120462034D01*
X190524742Y-120208954D01*
X190287000Y-120329003D01*
X190033000Y-120329003D01*
X189795258Y-120208954D01*
X189252424Y-120462034D01*
X189201905Y-120517157D01*
X189051328Y-120283154D01*
X188808385Y-120117157D01*
X188520000Y-120058758D01*
X188477000Y-120058758D01*
X188477000Y-118681329D01*
X188590132Y-118634584D01*
X189132678Y-118092983D01*
X189426665Y-117384986D01*
X189427334Y-116618378D01*
X189379376Y-116502310D01*
X196190843Y-109690844D01*
X196402630Y-109373882D01*
X196420354Y-109284777D01*
X196477000Y-109000000D01*
X196477000Y-102908633D01*
X196761577Y-102624552D01*
X196988741Y-102077480D01*
X196989258Y-101485119D01*
X196763049Y-100937651D01*
X196344552Y-100518423D01*
X195797480Y-100291259D01*
X195205119Y-100290742D01*
X194657651Y-100516951D01*
X194238423Y-100935448D01*
X194011259Y-101482520D01*
X194010742Y-102074881D01*
X194236951Y-102622349D01*
X194523000Y-102908898D01*
X194523000Y-108595313D01*
X187998036Y-115120278D01*
X187884986Y-115073335D01*
X187118378Y-115072666D01*
X186409868Y-115365416D01*
X185867322Y-115907017D01*
X185819161Y-116023000D01*
X175900000Y-116023000D01*
X175526119Y-116097369D01*
X175209157Y-116309156D01*
X173986329Y-117531985D01*
X173500000Y-117435248D01*
X172762569Y-117581932D01*
X172137405Y-117999653D01*
X171854534Y-118423000D01*
X168181329Y-118423000D01*
X168134584Y-118309868D01*
X167592983Y-117767322D01*
X167477000Y-117719161D01*
X167477000Y-117702944D01*
X167402630Y-117329062D01*
X167317800Y-117202106D01*
X167277000Y-117141043D01*
X167277000Y-112140000D01*
X167202631Y-111766119D01*
X166990844Y-111449157D01*
X164987844Y-109446157D01*
X165016916Y-109300000D01*
X164900680Y-108715642D01*
X164569668Y-108220248D01*
X164074274Y-107889236D01*
X163489916Y-107773000D01*
X163430084Y-107773000D01*
X162845726Y-107889236D01*
X162350332Y-108220248D01*
X162019320Y-108715642D01*
X161903084Y-109300000D01*
X162019320Y-109884358D01*
X162350332Y-110379752D01*
X162845726Y-110710764D01*
X163430084Y-110827000D01*
X163489916Y-110827000D01*
X163586168Y-110807854D01*
X165323000Y-112544687D01*
X165323000Y-117502944D01*
X165380951Y-117794283D01*
X164867322Y-118307017D01*
X164727000Y-118644949D01*
X164727000Y-115500000D01*
X164664048Y-115183521D01*
X164484777Y-114915223D01*
X161084777Y-111515223D01*
X160816479Y-111335952D01*
X160500000Y-111273000D01*
X160242555Y-111273000D01*
X159169554Y-110200000D01*
X159842555Y-109527000D01*
X160700000Y-109527000D01*
X161016479Y-109464048D01*
X161284777Y-109284777D01*
X167084778Y-103484777D01*
X167264048Y-103216479D01*
X167327000Y-102900000D01*
X167327000Y-95758220D01*
X167862595Y-95400347D01*
X168280316Y-94775183D01*
X168358600Y-94381622D01*
X171572666Y-94381622D01*
X171865416Y-95090132D01*
X172407017Y-95632678D01*
X173115014Y-95926665D01*
X173881622Y-95927334D01*
X174590132Y-95634584D01*
X175132678Y-95092983D01*
X175426665Y-94384986D01*
X175427334Y-93618378D01*
X175317352Y-93352202D01*
X180354484Y-88315070D01*
X180419947Y-88380648D01*
X180283154Y-88468672D01*
X180117157Y-88711615D01*
X180058758Y-89000000D01*
X180058758Y-90800000D01*
X180109451Y-91069410D01*
X180268672Y-91316846D01*
X180511615Y-91482843D01*
X180800000Y-91541242D01*
X180872999Y-91541242D01*
X180872999Y-92109442D01*
X180500000Y-92035248D01*
X179762569Y-92181932D01*
X179137405Y-92599653D01*
X178719684Y-93224817D01*
X178573000Y-93962248D01*
X178573000Y-94037752D01*
X178719684Y-94775183D01*
X179137405Y-95400347D01*
X179762569Y-95818068D01*
X180500000Y-95964752D01*
X181237431Y-95818068D01*
X181862595Y-95400347D01*
X182245693Y-94827000D01*
X186938184Y-94827000D01*
X186762569Y-94861932D01*
X186137405Y-95279653D01*
X185719684Y-95904817D01*
X185573000Y-96642248D01*
X185573000Y-96717752D01*
X185719684Y-97455183D01*
X186137405Y-98080347D01*
X186762569Y-98498068D01*
X187500000Y-98644752D01*
X188237431Y-98498068D01*
X188862595Y-98080347D01*
X189232329Y-97527000D01*
X194230609Y-97527000D01*
X194236951Y-97542349D01*
X194655448Y-97961577D01*
X195202520Y-98188741D01*
X195794881Y-98189258D01*
X196342349Y-97963049D01*
X196761577Y-97544552D01*
X196988741Y-96997480D01*
X196989258Y-96405119D01*
X196982000Y-96387554D01*
X198884777Y-94484777D01*
X199064048Y-94216479D01*
X199127000Y-93900000D01*
X199127000Y-72095396D01*
X199064048Y-71778917D01*
X199048703Y-71755952D01*
X198884778Y-71510619D01*
X195628648Y-68254490D01*
X195699255Y-67899526D01*
X195699255Y-67835776D01*
X195575407Y-67213150D01*
X195222718Y-66685313D01*
X194694881Y-66332624D01*
X194072255Y-66208776D01*
X193449629Y-66332624D01*
X192921792Y-66685313D01*
X192569103Y-67213150D01*
X192445255Y-67835776D01*
X192445255Y-67899526D01*
X192569103Y-68522152D01*
X192921792Y-69049989D01*
X193052988Y-69137651D01*
X192921792Y-69225313D01*
X192569103Y-69753150D01*
X192445255Y-70375776D01*
X192445255Y-70439526D01*
X192569103Y-71062152D01*
X192807274Y-71418600D01*
X192655409Y-71516323D01*
X192489412Y-71759266D01*
X192431013Y-72047651D01*
X192431013Y-72120651D01*
X191952349Y-72120651D01*
X191635870Y-72183603D01*
X191367572Y-72362874D01*
X188915223Y-74815223D01*
X188886134Y-74858758D01*
X188400000Y-74858758D01*
X188130590Y-74909451D01*
X187883154Y-75068672D01*
X187717157Y-75311615D01*
X187658758Y-75600000D01*
X187658758Y-77800000D01*
X187709451Y-78069410D01*
X187868672Y-78316846D01*
X188111615Y-78482843D01*
X188400000Y-78541242D01*
X188673000Y-78541242D01*
X188673000Y-85620000D01*
X188735952Y-85936479D01*
X188915223Y-86204777D01*
X194017628Y-91307183D01*
X194011259Y-91322520D01*
X194010742Y-91914881D01*
X194018000Y-91932446D01*
X192777446Y-93173000D01*
X182426282Y-93173000D01*
X182464047Y-93116480D01*
X182526999Y-92800001D01*
X182526999Y-91541242D01*
X182600000Y-91541242D01*
X182869410Y-91490549D01*
X183116846Y-91331328D01*
X183282843Y-91088385D01*
X183341242Y-90800000D01*
X183341242Y-89000000D01*
X183290549Y-88730590D01*
X183131328Y-88483154D01*
X182980831Y-88380323D01*
X183078499Y-88282825D01*
X183326717Y-87685050D01*
X183327282Y-87037789D01*
X183080108Y-86439582D01*
X182622825Y-85981501D01*
X182025050Y-85733283D01*
X181377789Y-85732718D01*
X180779582Y-85979892D01*
X180321501Y-86437175D01*
X180281711Y-86533000D01*
X180140000Y-86533000D01*
X179823521Y-86595952D01*
X179555223Y-86775223D01*
X174147928Y-92182518D01*
X173884986Y-92073335D01*
X173118378Y-92072666D01*
X172409868Y-92365416D01*
X171867322Y-92907017D01*
X171573335Y-93615014D01*
X171572666Y-94381622D01*
X168358600Y-94381622D01*
X168427000Y-94037752D01*
X168427000Y-93962248D01*
X168307595Y-93361959D01*
X168742555Y-92926999D01*
X171400001Y-92926999D01*
X171716480Y-92864047D01*
X171984778Y-92684776D01*
X182352072Y-82317482D01*
X182615014Y-82426665D01*
X183381622Y-82427334D01*
X184090132Y-82134584D01*
X184632678Y-81592983D01*
X184926665Y-80884986D01*
X184927334Y-80118378D01*
X184634584Y-79409868D01*
X184092983Y-78867322D01*
X183384986Y-78573335D01*
X182618378Y-78572666D01*
X181909868Y-78865416D01*
X181367322Y-79407017D01*
X181073335Y-80115014D01*
X181072666Y-80881622D01*
X181182648Y-81147798D01*
X174695961Y-87634485D01*
X174788195Y-87411805D01*
X174671432Y-87127000D01*
X173127000Y-87127000D01*
X173127000Y-88671858D01*
X173411807Y-88788203D01*
X173648881Y-88681565D01*
X171057447Y-91272999D01*
X168400001Y-91272999D01*
X168083522Y-91335951D01*
X167815224Y-91515222D01*
X167163266Y-92167180D01*
X166500000Y-92035248D01*
X165762569Y-92181932D01*
X165137405Y-92599653D01*
X164719684Y-93224817D01*
X164573000Y-93962248D01*
X164573000Y-94037752D01*
X164719684Y-94775183D01*
X165137405Y-95400347D01*
X165673000Y-95758220D01*
X165673000Y-102557445D01*
X160357446Y-107873000D01*
X159500000Y-107873000D01*
X159183521Y-107935952D01*
X158915222Y-108115223D01*
X157927000Y-109103446D01*
X157927000Y-107106209D01*
X158100000Y-107141242D01*
X159900000Y-107141242D01*
X160169410Y-107090549D01*
X160416846Y-106931328D01*
X160582843Y-106688385D01*
X160641242Y-106400000D01*
X160641242Y-104600000D01*
X160590549Y-104330590D01*
X160452891Y-104116663D01*
X161587449Y-102982106D01*
X161694928Y-103026735D01*
X162302407Y-103027265D01*
X162863846Y-102795283D01*
X163293773Y-102366106D01*
X163526735Y-101805072D01*
X163527265Y-101197593D01*
X163295283Y-100636154D01*
X162866106Y-100206227D01*
X162305072Y-99973265D01*
X161697593Y-99972735D01*
X161658459Y-99988905D01*
X160101352Y-98431798D01*
X160353454Y-98419778D01*
X160754005Y-98253864D01*
X160828139Y-98007745D01*
X160000000Y-97179605D01*
X159985858Y-97193748D01*
X159806252Y-97014142D01*
X159820395Y-97000000D01*
X160179605Y-97000000D01*
X161007745Y-97828139D01*
X161253864Y-97754005D01*
X161446965Y-97216777D01*
X161419778Y-96646546D01*
X161253864Y-96245995D01*
X161007745Y-96171861D01*
X160179605Y-97000000D01*
X159820395Y-97000000D01*
X158992255Y-96171861D01*
X158746136Y-96245995D01*
X158553035Y-96783223D01*
X158558054Y-96888500D01*
X157661809Y-95992255D01*
X159171861Y-95992255D01*
X160000000Y-96820395D01*
X160828139Y-95992255D01*
X160754005Y-95746136D01*
X160216777Y-95553035D01*
X159646546Y-95580222D01*
X159245995Y-95746136D01*
X159171861Y-95992255D01*
X157661809Y-95992255D01*
X153971961Y-92302407D01*
X158472735Y-92302407D01*
X158704717Y-92863846D01*
X159133894Y-93293773D01*
X159694928Y-93526735D01*
X160302407Y-93527265D01*
X160863846Y-93295283D01*
X161293773Y-92866106D01*
X161526735Y-92305072D01*
X161527265Y-91697593D01*
X161511095Y-91658459D01*
X163084777Y-90084777D01*
X163264048Y-89816479D01*
X163327000Y-89500000D01*
X163327000Y-87411805D01*
X171211805Y-87411805D01*
X171444358Y-87973258D01*
X171935224Y-88494492D01*
X172588193Y-88788203D01*
X172873000Y-88671858D01*
X172873000Y-87127000D01*
X171328568Y-87127000D01*
X171211805Y-87411805D01*
X163327000Y-87411805D01*
X163327000Y-86588195D01*
X171211805Y-86588195D01*
X171328568Y-86873000D01*
X172873000Y-86873000D01*
X172873000Y-85328142D01*
X173127000Y-85328142D01*
X173127000Y-86873000D01*
X174671432Y-86873000D01*
X174788195Y-86588195D01*
X174555642Y-86026742D01*
X174064776Y-85505508D01*
X173411807Y-85211797D01*
X173127000Y-85328142D01*
X172873000Y-85328142D01*
X172588193Y-85211797D01*
X171935224Y-85505508D01*
X171444358Y-86026742D01*
X171211805Y-86588195D01*
X163327000Y-86588195D01*
X163327000Y-82078220D01*
X163862595Y-81720347D01*
X164280316Y-81095183D01*
X164427000Y-80357752D01*
X164427000Y-80282248D01*
X167073000Y-80282248D01*
X167073000Y-80357752D01*
X167219684Y-81095183D01*
X167637405Y-81720347D01*
X168262569Y-82138068D01*
X169000000Y-82284752D01*
X169737431Y-82138068D01*
X170362595Y-81720347D01*
X170625421Y-81327000D01*
X174256692Y-81327000D01*
X174365416Y-81590132D01*
X174907017Y-82132678D01*
X175615014Y-82426665D01*
X176381622Y-82427334D01*
X177090132Y-82134584D01*
X177632678Y-81592983D01*
X177926665Y-80884986D01*
X177927334Y-80118378D01*
X177634584Y-79409868D01*
X177092983Y-78867322D01*
X176384986Y-78573335D01*
X175618378Y-78572666D01*
X174909868Y-78865416D01*
X174367322Y-79407017D01*
X174256876Y-79673000D01*
X170805813Y-79673000D01*
X170780316Y-79544817D01*
X170362595Y-78919653D01*
X169737431Y-78501932D01*
X169000000Y-78355248D01*
X168262569Y-78501932D01*
X167637405Y-78919653D01*
X167219684Y-79544817D01*
X167073000Y-80282248D01*
X164427000Y-80282248D01*
X164280316Y-79544817D01*
X163862595Y-78919653D01*
X163237431Y-78501932D01*
X162500000Y-78355248D01*
X161762569Y-78501932D01*
X161137405Y-78919653D01*
X160719684Y-79544817D01*
X160573000Y-80282248D01*
X160573000Y-80357752D01*
X160719684Y-81095183D01*
X161137405Y-81720347D01*
X161673000Y-82078220D01*
X161673000Y-89157446D01*
X160341892Y-90488554D01*
X160305072Y-90473265D01*
X159697593Y-90472735D01*
X159136154Y-90704717D01*
X158706227Y-91133894D01*
X158473265Y-91694928D01*
X158472735Y-92302407D01*
X153971961Y-92302407D01*
X153843675Y-92174121D01*
X154209047Y-91809386D01*
X154426752Y-91285093D01*
X154427248Y-90717397D01*
X154210457Y-90192725D01*
X153809386Y-89790953D01*
X153285093Y-89573248D01*
X152717397Y-89572752D01*
X152192725Y-89789543D01*
X151790953Y-90190614D01*
X151573248Y-90714907D01*
X151572752Y-91282603D01*
X151789543Y-91807275D01*
X152173000Y-92191402D01*
X152173000Y-92500000D01*
X152235952Y-92816479D01*
X152415223Y-93084777D01*
X160488554Y-101158108D01*
X160473265Y-101194928D01*
X160472774Y-101757671D01*
X158415223Y-103815223D01*
X158386134Y-103858758D01*
X158100000Y-103858758D01*
X157830590Y-103909451D01*
X157583154Y-104068672D01*
X157417157Y-104311615D01*
X157358758Y-104600000D01*
X157358758Y-104886134D01*
X157315223Y-104915223D01*
X156515223Y-105715223D01*
X156335952Y-105983521D01*
X156273000Y-106300000D01*
X156273000Y-109626062D01*
X154726062Y-111173000D01*
X153028635Y-111173000D01*
X152990549Y-110970590D01*
X152862631Y-110771801D01*
X152994928Y-110826735D01*
X153602407Y-110827265D01*
X154163846Y-110595283D01*
X154593773Y-110166106D01*
X154826735Y-109605072D01*
X154827265Y-108997593D01*
X154595283Y-108436154D01*
X154166106Y-108006227D01*
X153605072Y-107773265D01*
X152997593Y-107772735D01*
X152436154Y-108004717D01*
X152006227Y-108433894D01*
X151989989Y-108473000D01*
X151542555Y-108473000D01*
X149327000Y-106257446D01*
X149327000Y-102507745D01*
X156171861Y-102507745D01*
X156245995Y-102753864D01*
X156783223Y-102946965D01*
X157353454Y-102919778D01*
X157754005Y-102753864D01*
X157828139Y-102507745D01*
X157000000Y-101679605D01*
X156171861Y-102507745D01*
X149327000Y-102507745D01*
X149327000Y-101283223D01*
X155553035Y-101283223D01*
X155580222Y-101853454D01*
X155746136Y-102254005D01*
X155992255Y-102328139D01*
X156820395Y-101500000D01*
X157179605Y-101500000D01*
X158007745Y-102328139D01*
X158253864Y-102254005D01*
X158446965Y-101716777D01*
X158419778Y-101146546D01*
X158253864Y-100745995D01*
X158007745Y-100671861D01*
X157179605Y-101500000D01*
X156820395Y-101500000D01*
X155992255Y-100671861D01*
X155746136Y-100745995D01*
X155553035Y-101283223D01*
X149327000Y-101283223D01*
X149327000Y-100492255D01*
X156171861Y-100492255D01*
X157000000Y-101320395D01*
X157828139Y-100492255D01*
X157754005Y-100246136D01*
X157216777Y-100053035D01*
X156646546Y-100080222D01*
X156245995Y-100246136D01*
X156171861Y-100492255D01*
X149327000Y-100492255D01*
X149327000Y-98953331D01*
X151707273Y-98953331D01*
X151933236Y-99422663D01*
X152321604Y-99769797D01*
X152666671Y-99912716D01*
X152873000Y-99789374D01*
X152873000Y-98747000D01*
X153127000Y-98747000D01*
X153127000Y-99789374D01*
X153333329Y-99912716D01*
X153678396Y-99769797D01*
X154066764Y-99422663D01*
X154292727Y-98953331D01*
X154170206Y-98747000D01*
X153127000Y-98747000D01*
X152873000Y-98747000D01*
X151829794Y-98747000D01*
X151707273Y-98953331D01*
X149327000Y-98953331D01*
X149327000Y-98286669D01*
X151707273Y-98286669D01*
X151829794Y-98493000D01*
X152873000Y-98493000D01*
X152873000Y-97450626D01*
X153127000Y-97450626D01*
X153127000Y-98493000D01*
X154170206Y-98493000D01*
X154292727Y-98286669D01*
X154066764Y-97817337D01*
X153678396Y-97470203D01*
X153333329Y-97327284D01*
X153127000Y-97450626D01*
X152873000Y-97450626D01*
X152666671Y-97327284D01*
X152321604Y-97470203D01*
X151933236Y-97817337D01*
X151707273Y-98286669D01*
X149327000Y-98286669D01*
X149327000Y-91900000D01*
X149264048Y-91583521D01*
X149243823Y-91553252D01*
X149084778Y-91315223D01*
X145527000Y-87757446D01*
X145527000Y-87381622D01*
X145672666Y-87381622D01*
X145965416Y-88090132D01*
X146507017Y-88632678D01*
X147215014Y-88926665D01*
X147981622Y-88927334D01*
X148690132Y-88634584D01*
X149232678Y-88092983D01*
X149526665Y-87384986D01*
X149527334Y-86618378D01*
X149234584Y-85909868D01*
X148692983Y-85367322D01*
X147984986Y-85073335D01*
X147218378Y-85072666D01*
X146509868Y-85365416D01*
X145967322Y-85907017D01*
X145673335Y-86615014D01*
X145672666Y-87381622D01*
X145527000Y-87381622D01*
X145527000Y-81660000D01*
X145464048Y-81343521D01*
X145284777Y-81075223D01*
X142236325Y-78026771D01*
X142802407Y-78027265D01*
X143363846Y-77795283D01*
X143560644Y-77598828D01*
X145246593Y-79284777D01*
X145514891Y-79464048D01*
X145831370Y-79527000D01*
X153340000Y-79527000D01*
X153656479Y-79464048D01*
X153924777Y-79284777D01*
X156216906Y-76992649D01*
X156540000Y-77056916D01*
X157124358Y-76940680D01*
X157619752Y-76609668D01*
X157810000Y-76324942D01*
X158000248Y-76609668D01*
X158495642Y-76940680D01*
X159080000Y-77056916D01*
X159664358Y-76940680D01*
X160159752Y-76609668D01*
X160490764Y-76114274D01*
X160607000Y-75529916D01*
X160607000Y-75470084D01*
X160552659Y-75196895D01*
X163284777Y-72464777D01*
X163464048Y-72196479D01*
X163483239Y-72100000D01*
X163527000Y-71880000D01*
X163527000Y-66822554D01*
X165953431Y-64396123D01*
X187810817Y-64396123D01*
X188090988Y-65012392D01*
X188585668Y-65474534D01*
X189103878Y-65689175D01*
X189373000Y-65571125D01*
X189373000Y-64127000D01*
X189627000Y-64127000D01*
X189627000Y-65571125D01*
X189896122Y-65689175D01*
X190414332Y-65474534D01*
X190909012Y-65012392D01*
X191189183Y-64396123D01*
X191071604Y-64127000D01*
X189627000Y-64127000D01*
X189373000Y-64127000D01*
X187928396Y-64127000D01*
X187810817Y-64396123D01*
X165953431Y-64396123D01*
X166745677Y-63603877D01*
X187810817Y-63603877D01*
X187928396Y-63873000D01*
X189373000Y-63873000D01*
X189373000Y-62428875D01*
X189627000Y-62428875D01*
X189627000Y-63873000D01*
X191071604Y-63873000D01*
X191189183Y-63603877D01*
X190909012Y-62987608D01*
X190414332Y-62525466D01*
X189896122Y-62310825D01*
X189627000Y-62428875D01*
X189373000Y-62428875D01*
X189103878Y-62310825D01*
X188585668Y-62525466D01*
X188090988Y-62987608D01*
X187810817Y-63603877D01*
X166745677Y-63603877D01*
X168479260Y-61870295D01*
X168615014Y-61926665D01*
X169381622Y-61927334D01*
X170090132Y-61634584D01*
X170632678Y-61092983D01*
X170926665Y-60384986D01*
X170927334Y-59618378D01*
X170634584Y-58909868D01*
X170435064Y-58710000D01*
X174741648Y-58710000D01*
X174637405Y-58779653D01*
X174637405Y-58779653D01*
G37*
X174637405Y-58779653D02*
X174219684Y-59404817D01*
X174073000Y-60142248D01*
X174073000Y-60217752D01*
X174219684Y-60955183D01*
X174637405Y-61580347D01*
X175262569Y-61998068D01*
X176000000Y-62144752D01*
X176737431Y-61998068D01*
X177362595Y-61580347D01*
X177780316Y-60955183D01*
X177852595Y-60591807D01*
X181211797Y-60591807D01*
X181505508Y-61244776D01*
X182026742Y-61735642D01*
X182588195Y-61968195D01*
X182873000Y-61851432D01*
X182873000Y-60307000D01*
X183127000Y-60307000D01*
X183127000Y-61851432D01*
X183411805Y-61968195D01*
X183973258Y-61735642D01*
X184494492Y-61244776D01*
X184788203Y-60591807D01*
X184671858Y-60307000D01*
X183127000Y-60307000D01*
X182873000Y-60307000D01*
X181328142Y-60307000D01*
X181211797Y-60591807D01*
X177852595Y-60591807D01*
X177927000Y-60217752D01*
X177927000Y-60142248D01*
X177780316Y-59404817D01*
X177362595Y-58779653D01*
X177258352Y-58710000D01*
X181935802Y-58710000D01*
X181505508Y-59115224D01*
X181211797Y-59768193D01*
X181328142Y-60053000D01*
X182873000Y-60053000D01*
X182873000Y-60033000D01*
X183127000Y-60033000D01*
X183127000Y-60053000D01*
X184671858Y-60053000D01*
X184788203Y-59768193D01*
X184494492Y-59115224D01*
X184064198Y-58710000D01*
X203790000Y-58710000D01*
X203790000Y-127290000D01*
X182408025Y-127290000D01*
X182438327Y-127259698D01*
X182535000Y-127026309D01*
X182535000Y-126707745D01*
X186871861Y-126707745D01*
X186945995Y-126953864D01*
X187483223Y-127146965D01*
X188053454Y-127119778D01*
X188454005Y-126953864D01*
X188528139Y-126707745D01*
X187700000Y-125879605D01*
X186871861Y-126707745D01*
X182535000Y-126707745D01*
X182535000Y-126285750D01*
X182376250Y-126127000D01*
X181127000Y-126127000D01*
X181127000Y-126147000D01*
X180873000Y-126147000D01*
X180873000Y-126127000D01*
X179623750Y-126127000D01*
X179465000Y-126285750D01*
X179465000Y-127026309D01*
X179561673Y-127259698D01*
X179591975Y-127290000D01*
X171839554Y-127290000D01*
X172148712Y-126980842D01*
X172162920Y-126986741D01*
X172754485Y-126987258D01*
X173301217Y-126761352D01*
X173584299Y-126478764D01*
X174200841Y-126478764D01*
X174270059Y-126720742D01*
X174792780Y-126907155D01*
X175347049Y-126879341D01*
X175729941Y-126720742D01*
X175799159Y-126478764D01*
X175000000Y-125679605D01*
X174200841Y-126478764D01*
X173584299Y-126478764D01*
X173719882Y-126343418D01*
X173773137Y-126215165D01*
X173779258Y-126229941D01*
X174021236Y-126299159D01*
X174820395Y-125500000D01*
X175179605Y-125500000D01*
X175978764Y-126299159D01*
X176220742Y-126229941D01*
X176407155Y-125707220D01*
X176379341Y-125152951D01*
X176220742Y-124770059D01*
X175978764Y-124700841D01*
X175179605Y-125500000D01*
X174820395Y-125500000D01*
X174021236Y-124700841D01*
X173779258Y-124770059D01*
X173773733Y-124785553D01*
X173721352Y-124658783D01*
X173584046Y-124521236D01*
X174200841Y-124521236D01*
X175000000Y-125320395D01*
X175799159Y-124521236D01*
X175729941Y-124279258D01*
X175207220Y-124092845D01*
X174652951Y-124120659D01*
X174270059Y-124279258D01*
X174200841Y-124521236D01*
X173584046Y-124521236D01*
X173303418Y-124240118D01*
X172757080Y-124013259D01*
X172165515Y-124012742D01*
X171618783Y-124238648D01*
X171373061Y-124483941D01*
X171370549Y-124470590D01*
X171211328Y-124223154D01*
X170968385Y-124057157D01*
X170680000Y-123998758D01*
X170533866Y-123998758D01*
X170504777Y-123955223D01*
X167585891Y-121036337D01*
X167590132Y-121034584D01*
X168132678Y-120492983D01*
X168180839Y-120377000D01*
X171854534Y-120377000D01*
X172137405Y-120800347D01*
X172762569Y-121218068D01*
X173500000Y-121364752D01*
X174237431Y-121218068D01*
X174862595Y-120800347D01*
X175280316Y-120175183D01*
X175427000Y-119437752D01*
X175427000Y-119362248D01*
X175342790Y-118938896D01*
X176304687Y-117977000D01*
X179197915Y-117977000D01*
X178867322Y-118307017D01*
X178573335Y-119015014D01*
X178572666Y-119781622D01*
X178865416Y-120490132D01*
X179407017Y-121032678D01*
X179673000Y-121143124D01*
X179673000Y-122485766D01*
X179621501Y-122537175D01*
X179373283Y-123134950D01*
X179372718Y-123782211D01*
X179619892Y-124380418D01*
X179783124Y-124543935D01*
X179740301Y-124561673D01*
X179561673Y-124740302D01*
X179465000Y-124973691D01*
X179465000Y-125714250D01*
X179623750Y-125873000D01*
X180873000Y-125873000D01*
X180873000Y-125853000D01*
X181127000Y-125853000D01*
X181127000Y-125873000D01*
X182376250Y-125873000D01*
X182535000Y-125714250D01*
X182535000Y-125483223D01*
X186253035Y-125483223D01*
X186280222Y-126053454D01*
X186446136Y-126454005D01*
X186692255Y-126528139D01*
X187520395Y-125700000D01*
X187879605Y-125700000D01*
X188707745Y-126528139D01*
X188953864Y-126454005D01*
X189146965Y-125916777D01*
X189119778Y-125346546D01*
X188953864Y-124945995D01*
X188707745Y-124871861D01*
X187879605Y-125700000D01*
X187520395Y-125700000D01*
X186692255Y-124871861D01*
X186446136Y-124945995D01*
X186253035Y-125483223D01*
X182535000Y-125483223D01*
X182535000Y-124973691D01*
X182438327Y-124740302D01*
X182390281Y-124692255D01*
X186871861Y-124692255D01*
X187700000Y-125520395D01*
X188528139Y-124692255D01*
X188454005Y-124446136D01*
X187916777Y-124253035D01*
X187346546Y-124280222D01*
X186945995Y-124446136D01*
X186871861Y-124692255D01*
X182390281Y-124692255D01*
X182259699Y-124561673D01*
X182217040Y-124544003D01*
X182378499Y-124382825D01*
X182626717Y-123785050D01*
X182627282Y-123137789D01*
X182380108Y-122539582D01*
X181922825Y-122081501D01*
X181327000Y-121834093D01*
X181327000Y-121143308D01*
X181590132Y-121034584D01*
X182132678Y-120492983D01*
X182426665Y-119784986D01*
X182427334Y-119018378D01*
X182134584Y-118309868D01*
X181802296Y-117977000D01*
X185818671Y-117977000D01*
X185865416Y-118090132D01*
X186407017Y-118632678D01*
X186523000Y-118680839D01*
X186523000Y-120095826D01*
X186450590Y-120109451D01*
X186203154Y-120268672D01*
X186037157Y-120511615D01*
X185978758Y-120800000D01*
X185978758Y-122600000D01*
X186029451Y-122869410D01*
X186188672Y-123116846D01*
X186431615Y-123282843D01*
X186720000Y-123341242D01*
X188520000Y-123341242D01*
X188789410Y-123290549D01*
X189036846Y-123131328D01*
X189202843Y-122888385D01*
X189203593Y-122884684D01*
X189252424Y-122937966D01*
X189795258Y-123191046D01*
X190033000Y-123070997D01*
X190033000Y-121827000D01*
X190013000Y-121827000D01*
X190013000Y-121573000D01*
X190033000Y-121573000D01*
X190033000Y-120329003D01*
X190287000Y-120329003D01*
X190287000Y-121573000D01*
X190307000Y-121573000D01*
X190307000Y-121827000D01*
X190287000Y-121827000D01*
X190287000Y-123070997D01*
X190524742Y-123191046D01*
X191067576Y-122937966D01*
X191361694Y-122617040D01*
X191517662Y-122850463D01*
X191873000Y-123087892D01*
X191873000Y-124389493D01*
X191836154Y-124404717D01*
X191406227Y-124833894D01*
X191173265Y-125394928D01*
X191172735Y-126002407D01*
X191404717Y-126563846D01*
X191833894Y-126993773D01*
X192394928Y-127226735D01*
X193002407Y-127227265D01*
X193563846Y-126995283D01*
X193993773Y-126566106D01*
X194226735Y-126005072D01*
X194227265Y-125397593D01*
X193995283Y-124836154D01*
X193566106Y-124406227D01*
X193527000Y-124389989D01*
X193527000Y-123087892D01*
X193882338Y-122850463D01*
X194235027Y-122322626D01*
X194358875Y-121700000D01*
X194235027Y-121077374D01*
X193882338Y-120549537D01*
X193354501Y-120196848D01*
X192731875Y-120073000D01*
X192668125Y-120073000D01*
X192045499Y-120196848D01*
X191517662Y-120549537D01*
X191361694Y-120782960D01*
X191067576Y-120462034D01*
X190524742Y-120208954D01*
X190287000Y-120329003D01*
X190033000Y-120329003D01*
X189795258Y-120208954D01*
X189252424Y-120462034D01*
X189201905Y-120517157D01*
X189051328Y-120283154D01*
X188808385Y-120117157D01*
X188520000Y-120058758D01*
X188477000Y-120058758D01*
X188477000Y-118681329D01*
X188590132Y-118634584D01*
X189132678Y-118092983D01*
X189426665Y-117384986D01*
X189427334Y-116618378D01*
X189379376Y-116502310D01*
X196190843Y-109690844D01*
X196402630Y-109373882D01*
X196420354Y-109284777D01*
X196477000Y-109000000D01*
X196477000Y-102908633D01*
X196761577Y-102624552D01*
X196988741Y-102077480D01*
X196989258Y-101485119D01*
X196763049Y-100937651D01*
X196344552Y-100518423D01*
X195797480Y-100291259D01*
X195205119Y-100290742D01*
X194657651Y-100516951D01*
X194238423Y-100935448D01*
X194011259Y-101482520D01*
X194010742Y-102074881D01*
X194236951Y-102622349D01*
X194523000Y-102908898D01*
X194523000Y-108595313D01*
X187998036Y-115120278D01*
X187884986Y-115073335D01*
X187118378Y-115072666D01*
X186409868Y-115365416D01*
X185867322Y-115907017D01*
X185819161Y-116023000D01*
X175900000Y-116023000D01*
X175526119Y-116097369D01*
X175209157Y-116309156D01*
X173986329Y-117531985D01*
X173500000Y-117435248D01*
X172762569Y-117581932D01*
X172137405Y-117999653D01*
X171854534Y-118423000D01*
X168181329Y-118423000D01*
X168134584Y-118309868D01*
X167592983Y-117767322D01*
X167477000Y-117719161D01*
X167477000Y-117702944D01*
X167402630Y-117329062D01*
X167317800Y-117202106D01*
X167277000Y-117141043D01*
X167277000Y-112140000D01*
X167202631Y-111766119D01*
X166990844Y-111449157D01*
X164987844Y-109446157D01*
X165016916Y-109300000D01*
X164900680Y-108715642D01*
X164569668Y-108220248D01*
X164074274Y-107889236D01*
X163489916Y-107773000D01*
X163430084Y-107773000D01*
X162845726Y-107889236D01*
X162350332Y-108220248D01*
X162019320Y-108715642D01*
X161903084Y-109300000D01*
X162019320Y-109884358D01*
X162350332Y-110379752D01*
X162845726Y-110710764D01*
X163430084Y-110827000D01*
X163489916Y-110827000D01*
X163586168Y-110807854D01*
X165323000Y-112544687D01*
X165323000Y-117502944D01*
X165380951Y-117794283D01*
X164867322Y-118307017D01*
X164727000Y-118644949D01*
X164727000Y-115500000D01*
X164664048Y-115183521D01*
X164484777Y-114915223D01*
X161084777Y-111515223D01*
X160816479Y-111335952D01*
X160500000Y-111273000D01*
X160242555Y-111273000D01*
X159169554Y-110200000D01*
X159842555Y-109527000D01*
X160700000Y-109527000D01*
X161016479Y-109464048D01*
X161284777Y-109284777D01*
X167084778Y-103484777D01*
X167264048Y-103216479D01*
X167327000Y-102900000D01*
X167327000Y-95758220D01*
X167862595Y-95400347D01*
X168280316Y-94775183D01*
X168358600Y-94381622D01*
X171572666Y-94381622D01*
X171865416Y-95090132D01*
X172407017Y-95632678D01*
X173115014Y-95926665D01*
X173881622Y-95927334D01*
X174590132Y-95634584D01*
X175132678Y-95092983D01*
X175426665Y-94384986D01*
X175427334Y-93618378D01*
X175317352Y-93352202D01*
X180354484Y-88315070D01*
X180419947Y-88380648D01*
X180283154Y-88468672D01*
X180117157Y-88711615D01*
X180058758Y-89000000D01*
X180058758Y-90800000D01*
X180109451Y-91069410D01*
X180268672Y-91316846D01*
X180511615Y-91482843D01*
X180800000Y-91541242D01*
X180872999Y-91541242D01*
X180872999Y-92109442D01*
X180500000Y-92035248D01*
X179762569Y-92181932D01*
X179137405Y-92599653D01*
X178719684Y-93224817D01*
X178573000Y-93962248D01*
X178573000Y-94037752D01*
X178719684Y-94775183D01*
X179137405Y-95400347D01*
X179762569Y-95818068D01*
X180500000Y-95964752D01*
X181237431Y-95818068D01*
X181862595Y-95400347D01*
X182245693Y-94827000D01*
X186938184Y-94827000D01*
X186762569Y-94861932D01*
X186137405Y-95279653D01*
X185719684Y-95904817D01*
X185573000Y-96642248D01*
X185573000Y-96717752D01*
X185719684Y-97455183D01*
X186137405Y-98080347D01*
X186762569Y-98498068D01*
X187500000Y-98644752D01*
X188237431Y-98498068D01*
X188862595Y-98080347D01*
X189232329Y-97527000D01*
X194230609Y-97527000D01*
X194236951Y-97542349D01*
X194655448Y-97961577D01*
X195202520Y-98188741D01*
X195794881Y-98189258D01*
X196342349Y-97963049D01*
X196761577Y-97544552D01*
X196988741Y-96997480D01*
X196989258Y-96405119D01*
X196982000Y-96387554D01*
X198884777Y-94484777D01*
X199064048Y-94216479D01*
X199127000Y-93900000D01*
X199127000Y-72095396D01*
X199064048Y-71778917D01*
X199048703Y-71755952D01*
X198884778Y-71510619D01*
X195628648Y-68254490D01*
X195699255Y-67899526D01*
X195699255Y-67835776D01*
X195575407Y-67213150D01*
X195222718Y-66685313D01*
X194694881Y-66332624D01*
X194072255Y-66208776D01*
X193449629Y-66332624D01*
X192921792Y-66685313D01*
X192569103Y-67213150D01*
X192445255Y-67835776D01*
X192445255Y-67899526D01*
X192569103Y-68522152D01*
X192921792Y-69049989D01*
X193052988Y-69137651D01*
X192921792Y-69225313D01*
X192569103Y-69753150D01*
X192445255Y-70375776D01*
X192445255Y-70439526D01*
X192569103Y-71062152D01*
X192807274Y-71418600D01*
X192655409Y-71516323D01*
X192489412Y-71759266D01*
X192431013Y-72047651D01*
X192431013Y-72120651D01*
X191952349Y-72120651D01*
X191635870Y-72183603D01*
X191367572Y-72362874D01*
X188915223Y-74815223D01*
X188886134Y-74858758D01*
X188400000Y-74858758D01*
X188130590Y-74909451D01*
X187883154Y-75068672D01*
X187717157Y-75311615D01*
X187658758Y-75600000D01*
X187658758Y-77800000D01*
X187709451Y-78069410D01*
X187868672Y-78316846D01*
X188111615Y-78482843D01*
X188400000Y-78541242D01*
X188673000Y-78541242D01*
X188673000Y-85620000D01*
X188735952Y-85936479D01*
X188915223Y-86204777D01*
X194017628Y-91307183D01*
X194011259Y-91322520D01*
X194010742Y-91914881D01*
X194018000Y-91932446D01*
X192777446Y-93173000D01*
X182426282Y-93173000D01*
X182464047Y-93116480D01*
X182526999Y-92800001D01*
X182526999Y-91541242D01*
X182600000Y-91541242D01*
X182869410Y-91490549D01*
X183116846Y-91331328D01*
X183282843Y-91088385D01*
X183341242Y-90800000D01*
X183341242Y-89000000D01*
X183290549Y-88730590D01*
X183131328Y-88483154D01*
X182980831Y-88380323D01*
X183078499Y-88282825D01*
X183326717Y-87685050D01*
X183327282Y-87037789D01*
X183080108Y-86439582D01*
X182622825Y-85981501D01*
X182025050Y-85733283D01*
X181377789Y-85732718D01*
X180779582Y-85979892D01*
X180321501Y-86437175D01*
X180281711Y-86533000D01*
X180140000Y-86533000D01*
X179823521Y-86595952D01*
X179555223Y-86775223D01*
X174147928Y-92182518D01*
X173884986Y-92073335D01*
X173118378Y-92072666D01*
X172409868Y-92365416D01*
X171867322Y-92907017D01*
X171573335Y-93615014D01*
X171572666Y-94381622D01*
X168358600Y-94381622D01*
X168427000Y-94037752D01*
X168427000Y-93962248D01*
X168307595Y-93361959D01*
X168742555Y-92926999D01*
X171400001Y-92926999D01*
X171716480Y-92864047D01*
X171984778Y-92684776D01*
X182352072Y-82317482D01*
X182615014Y-82426665D01*
X183381622Y-82427334D01*
X184090132Y-82134584D01*
X184632678Y-81592983D01*
X184926665Y-80884986D01*
X184927334Y-80118378D01*
X184634584Y-79409868D01*
X184092983Y-78867322D01*
X183384986Y-78573335D01*
X182618378Y-78572666D01*
X181909868Y-78865416D01*
X181367322Y-79407017D01*
X181073335Y-80115014D01*
X181072666Y-80881622D01*
X181182648Y-81147798D01*
X174695961Y-87634485D01*
X174788195Y-87411805D01*
X174671432Y-87127000D01*
X173127000Y-87127000D01*
X173127000Y-88671858D01*
X173411807Y-88788203D01*
X173648881Y-88681565D01*
X171057447Y-91272999D01*
X168400001Y-91272999D01*
X168083522Y-91335951D01*
X167815224Y-91515222D01*
X167163266Y-92167180D01*
X166500000Y-92035248D01*
X165762569Y-92181932D01*
X165137405Y-92599653D01*
X164719684Y-93224817D01*
X164573000Y-93962248D01*
X164573000Y-94037752D01*
X164719684Y-94775183D01*
X165137405Y-95400347D01*
X165673000Y-95758220D01*
X165673000Y-102557445D01*
X160357446Y-107873000D01*
X159500000Y-107873000D01*
X159183521Y-107935952D01*
X158915222Y-108115223D01*
X157927000Y-109103446D01*
X157927000Y-107106209D01*
X158100000Y-107141242D01*
X159900000Y-107141242D01*
X160169410Y-107090549D01*
X160416846Y-106931328D01*
X160582843Y-106688385D01*
X160641242Y-106400000D01*
X160641242Y-104600000D01*
X160590549Y-104330590D01*
X160452891Y-104116663D01*
X161587449Y-102982106D01*
X161694928Y-103026735D01*
X162302407Y-103027265D01*
X162863846Y-102795283D01*
X163293773Y-102366106D01*
X163526735Y-101805072D01*
X163527265Y-101197593D01*
X163295283Y-100636154D01*
X162866106Y-100206227D01*
X162305072Y-99973265D01*
X161697593Y-99972735D01*
X161658459Y-99988905D01*
X160101352Y-98431798D01*
X160353454Y-98419778D01*
X160754005Y-98253864D01*
X160828139Y-98007745D01*
X160000000Y-97179605D01*
X159985858Y-97193748D01*
X159806252Y-97014142D01*
X159820395Y-97000000D01*
X160179605Y-97000000D01*
X161007745Y-97828139D01*
X161253864Y-97754005D01*
X161446965Y-97216777D01*
X161419778Y-96646546D01*
X161253864Y-96245995D01*
X161007745Y-96171861D01*
X160179605Y-97000000D01*
X159820395Y-97000000D01*
X158992255Y-96171861D01*
X158746136Y-96245995D01*
X158553035Y-96783223D01*
X158558054Y-96888500D01*
X157661809Y-95992255D01*
X159171861Y-95992255D01*
X160000000Y-96820395D01*
X160828139Y-95992255D01*
X160754005Y-95746136D01*
X160216777Y-95553035D01*
X159646546Y-95580222D01*
X159245995Y-95746136D01*
X159171861Y-95992255D01*
X157661809Y-95992255D01*
X153971961Y-92302407D01*
X158472735Y-92302407D01*
X158704717Y-92863846D01*
X159133894Y-93293773D01*
X159694928Y-93526735D01*
X160302407Y-93527265D01*
X160863846Y-93295283D01*
X161293773Y-92866106D01*
X161526735Y-92305072D01*
X161527265Y-91697593D01*
X161511095Y-91658459D01*
X163084777Y-90084777D01*
X163264048Y-89816479D01*
X163327000Y-89500000D01*
X163327000Y-87411805D01*
X171211805Y-87411805D01*
X171444358Y-87973258D01*
X171935224Y-88494492D01*
X172588193Y-88788203D01*
X172873000Y-88671858D01*
X172873000Y-87127000D01*
X171328568Y-87127000D01*
X171211805Y-87411805D01*
X163327000Y-87411805D01*
X163327000Y-86588195D01*
X171211805Y-86588195D01*
X171328568Y-86873000D01*
X172873000Y-86873000D01*
X172873000Y-85328142D01*
X173127000Y-85328142D01*
X173127000Y-86873000D01*
X174671432Y-86873000D01*
X174788195Y-86588195D01*
X174555642Y-86026742D01*
X174064776Y-85505508D01*
X173411807Y-85211797D01*
X173127000Y-85328142D01*
X172873000Y-85328142D01*
X172588193Y-85211797D01*
X171935224Y-85505508D01*
X171444358Y-86026742D01*
X171211805Y-86588195D01*
X163327000Y-86588195D01*
X163327000Y-82078220D01*
X163862595Y-81720347D01*
X164280316Y-81095183D01*
X164427000Y-80357752D01*
X164427000Y-80282248D01*
X167073000Y-80282248D01*
X167073000Y-80357752D01*
X167219684Y-81095183D01*
X167637405Y-81720347D01*
X168262569Y-82138068D01*
X169000000Y-82284752D01*
X169737431Y-82138068D01*
X170362595Y-81720347D01*
X170625421Y-81327000D01*
X174256692Y-81327000D01*
X174365416Y-81590132D01*
X174907017Y-82132678D01*
X175615014Y-82426665D01*
X176381622Y-82427334D01*
X177090132Y-82134584D01*
X177632678Y-81592983D01*
X177926665Y-80884986D01*
X177927334Y-80118378D01*
X177634584Y-79409868D01*
X177092983Y-78867322D01*
X176384986Y-78573335D01*
X175618378Y-78572666D01*
X174909868Y-78865416D01*
X174367322Y-79407017D01*
X174256876Y-79673000D01*
X170805813Y-79673000D01*
X170780316Y-79544817D01*
X170362595Y-78919653D01*
X169737431Y-78501932D01*
X169000000Y-78355248D01*
X168262569Y-78501932D01*
X167637405Y-78919653D01*
X167219684Y-79544817D01*
X167073000Y-80282248D01*
X164427000Y-80282248D01*
X164280316Y-79544817D01*
X163862595Y-78919653D01*
X163237431Y-78501932D01*
X162500000Y-78355248D01*
X161762569Y-78501932D01*
X161137405Y-78919653D01*
X160719684Y-79544817D01*
X160573000Y-80282248D01*
X160573000Y-80357752D01*
X160719684Y-81095183D01*
X161137405Y-81720347D01*
X161673000Y-82078220D01*
X161673000Y-89157446D01*
X160341892Y-90488554D01*
X160305072Y-90473265D01*
X159697593Y-90472735D01*
X159136154Y-90704717D01*
X158706227Y-91133894D01*
X158473265Y-91694928D01*
X158472735Y-92302407D01*
X153971961Y-92302407D01*
X153843675Y-92174121D01*
X154209047Y-91809386D01*
X154426752Y-91285093D01*
X154427248Y-90717397D01*
X154210457Y-90192725D01*
X153809386Y-89790953D01*
X153285093Y-89573248D01*
X152717397Y-89572752D01*
X152192725Y-89789543D01*
X151790953Y-90190614D01*
X151573248Y-90714907D01*
X151572752Y-91282603D01*
X151789543Y-91807275D01*
X152173000Y-92191402D01*
X152173000Y-92500000D01*
X152235952Y-92816479D01*
X152415223Y-93084777D01*
X160488554Y-101158108D01*
X160473265Y-101194928D01*
X160472774Y-101757671D01*
X158415223Y-103815223D01*
X158386134Y-103858758D01*
X158100000Y-103858758D01*
X157830590Y-103909451D01*
X157583154Y-104068672D01*
X157417157Y-104311615D01*
X157358758Y-104600000D01*
X157358758Y-104886134D01*
X157315223Y-104915223D01*
X156515223Y-105715223D01*
X156335952Y-105983521D01*
X156273000Y-106300000D01*
X156273000Y-109626062D01*
X154726062Y-111173000D01*
X153028635Y-111173000D01*
X152990549Y-110970590D01*
X152862631Y-110771801D01*
X152994928Y-110826735D01*
X153602407Y-110827265D01*
X154163846Y-110595283D01*
X154593773Y-110166106D01*
X154826735Y-109605072D01*
X154827265Y-108997593D01*
X154595283Y-108436154D01*
X154166106Y-108006227D01*
X153605072Y-107773265D01*
X152997593Y-107772735D01*
X152436154Y-108004717D01*
X152006227Y-108433894D01*
X151989989Y-108473000D01*
X151542555Y-108473000D01*
X149327000Y-106257446D01*
X149327000Y-102507745D01*
X156171861Y-102507745D01*
X156245995Y-102753864D01*
X156783223Y-102946965D01*
X157353454Y-102919778D01*
X157754005Y-102753864D01*
X157828139Y-102507745D01*
X157000000Y-101679605D01*
X156171861Y-102507745D01*
X149327000Y-102507745D01*
X149327000Y-101283223D01*
X155553035Y-101283223D01*
X155580222Y-101853454D01*
X155746136Y-102254005D01*
X155992255Y-102328139D01*
X156820395Y-101500000D01*
X157179605Y-101500000D01*
X158007745Y-102328139D01*
X158253864Y-102254005D01*
X158446965Y-101716777D01*
X158419778Y-101146546D01*
X158253864Y-100745995D01*
X158007745Y-100671861D01*
X157179605Y-101500000D01*
X156820395Y-101500000D01*
X155992255Y-100671861D01*
X155746136Y-100745995D01*
X155553035Y-101283223D01*
X149327000Y-101283223D01*
X149327000Y-100492255D01*
X156171861Y-100492255D01*
X157000000Y-101320395D01*
X157828139Y-100492255D01*
X157754005Y-100246136D01*
X157216777Y-100053035D01*
X156646546Y-100080222D01*
X156245995Y-100246136D01*
X156171861Y-100492255D01*
X149327000Y-100492255D01*
X149327000Y-98953331D01*
X151707273Y-98953331D01*
X151933236Y-99422663D01*
X152321604Y-99769797D01*
X152666671Y-99912716D01*
X152873000Y-99789374D01*
X152873000Y-98747000D01*
X153127000Y-98747000D01*
X153127000Y-99789374D01*
X153333329Y-99912716D01*
X153678396Y-99769797D01*
X154066764Y-99422663D01*
X154292727Y-98953331D01*
X154170206Y-98747000D01*
X153127000Y-98747000D01*
X152873000Y-98747000D01*
X151829794Y-98747000D01*
X151707273Y-98953331D01*
X149327000Y-98953331D01*
X149327000Y-98286669D01*
X151707273Y-98286669D01*
X151829794Y-98493000D01*
X152873000Y-98493000D01*
X152873000Y-97450626D01*
X153127000Y-97450626D01*
X153127000Y-98493000D01*
X154170206Y-98493000D01*
X154292727Y-98286669D01*
X154066764Y-97817337D01*
X153678396Y-97470203D01*
X153333329Y-97327284D01*
X153127000Y-97450626D01*
X152873000Y-97450626D01*
X152666671Y-97327284D01*
X152321604Y-97470203D01*
X151933236Y-97817337D01*
X151707273Y-98286669D01*
X149327000Y-98286669D01*
X149327000Y-91900000D01*
X149264048Y-91583521D01*
X149243823Y-91553252D01*
X149084778Y-91315223D01*
X145527000Y-87757446D01*
X145527000Y-87381622D01*
X145672666Y-87381622D01*
X145965416Y-88090132D01*
X146507017Y-88632678D01*
X147215014Y-88926665D01*
X147981622Y-88927334D01*
X148690132Y-88634584D01*
X149232678Y-88092983D01*
X149526665Y-87384986D01*
X149527334Y-86618378D01*
X149234584Y-85909868D01*
X148692983Y-85367322D01*
X147984986Y-85073335D01*
X147218378Y-85072666D01*
X146509868Y-85365416D01*
X145967322Y-85907017D01*
X145673335Y-86615014D01*
X145672666Y-87381622D01*
X145527000Y-87381622D01*
X145527000Y-81660000D01*
X145464048Y-81343521D01*
X145284777Y-81075223D01*
X142236325Y-78026771D01*
X142802407Y-78027265D01*
X143363846Y-77795283D01*
X143560644Y-77598828D01*
X145246593Y-79284777D01*
X145514891Y-79464048D01*
X145831370Y-79527000D01*
X153340000Y-79527000D01*
X153656479Y-79464048D01*
X153924777Y-79284777D01*
X156216906Y-76992649D01*
X156540000Y-77056916D01*
X157124358Y-76940680D01*
X157619752Y-76609668D01*
X157810000Y-76324942D01*
X158000248Y-76609668D01*
X158495642Y-76940680D01*
X159080000Y-77056916D01*
X159664358Y-76940680D01*
X160159752Y-76609668D01*
X160490764Y-76114274D01*
X160607000Y-75529916D01*
X160607000Y-75470084D01*
X160552659Y-75196895D01*
X163284777Y-72464777D01*
X163464048Y-72196479D01*
X163483239Y-72100000D01*
X163527000Y-71880000D01*
X163527000Y-66822554D01*
X165953431Y-64396123D01*
X187810817Y-64396123D01*
X188090988Y-65012392D01*
X188585668Y-65474534D01*
X189103878Y-65689175D01*
X189373000Y-65571125D01*
X189373000Y-64127000D01*
X189627000Y-64127000D01*
X189627000Y-65571125D01*
X189896122Y-65689175D01*
X190414332Y-65474534D01*
X190909012Y-65012392D01*
X191189183Y-64396123D01*
X191071604Y-64127000D01*
X189627000Y-64127000D01*
X189373000Y-64127000D01*
X187928396Y-64127000D01*
X187810817Y-64396123D01*
X165953431Y-64396123D01*
X166745677Y-63603877D01*
X187810817Y-63603877D01*
X187928396Y-63873000D01*
X189373000Y-63873000D01*
X189373000Y-62428875D01*
X189627000Y-62428875D01*
X189627000Y-63873000D01*
X191071604Y-63873000D01*
X191189183Y-63603877D01*
X190909012Y-62987608D01*
X190414332Y-62525466D01*
X189896122Y-62310825D01*
X189627000Y-62428875D01*
X189373000Y-62428875D01*
X189103878Y-62310825D01*
X188585668Y-62525466D01*
X188090988Y-62987608D01*
X187810817Y-63603877D01*
X166745677Y-63603877D01*
X168479260Y-61870295D01*
X168615014Y-61926665D01*
X169381622Y-61927334D01*
X170090132Y-61634584D01*
X170632678Y-61092983D01*
X170926665Y-60384986D01*
X170927334Y-59618378D01*
X170634584Y-58909868D01*
X170435064Y-58710000D01*
X174741648Y-58710000D01*
X174637405Y-58779653D01*
G36*
X197473000Y-72437951D02*
X197473000Y-83558687D01*
X197189720Y-82873097D01*
X196629851Y-82312249D01*
X195897972Y-82008346D01*
X195105505Y-82007655D01*
X194373097Y-82310280D01*
X193812249Y-82870149D01*
X193508346Y-83602028D01*
X193507655Y-84394495D01*
X193810280Y-85126903D01*
X194370149Y-85687751D01*
X194504839Y-85743679D01*
X194277603Y-85808857D01*
X194090856Y-86332302D01*
X194118638Y-86887368D01*
X194277603Y-87271143D01*
X194519787Y-87340608D01*
X195320395Y-86540000D01*
X195306253Y-86525858D01*
X195485858Y-86346253D01*
X195500000Y-86360395D01*
X195514143Y-86346253D01*
X195693748Y-86525858D01*
X195679605Y-86540000D01*
X196480213Y-87340608D01*
X196722397Y-87271143D01*
X196909144Y-86747698D01*
X196881362Y-86192632D01*
X196722397Y-85808857D01*
X196495840Y-85743874D01*
X196626903Y-85689720D01*
X197187751Y-85129851D01*
X197473000Y-84442896D01*
X197473000Y-93557446D01*
X195812818Y-95217628D01*
X195797480Y-95211259D01*
X195205119Y-95210742D01*
X194657651Y-95436951D01*
X194238423Y-95855448D01*
X194231135Y-95873000D01*
X189259057Y-95873000D01*
X188862595Y-95279653D01*
X188237431Y-94861932D01*
X188061816Y-94827000D01*
X193120000Y-94827000D01*
X193436479Y-94764048D01*
X193704777Y-94584777D01*
X195187182Y-93102372D01*
X195202520Y-93108741D01*
X195794881Y-93109258D01*
X196342349Y-92883049D01*
X196761577Y-92464552D01*
X196988741Y-91917480D01*
X196989258Y-91325119D01*
X196763049Y-90777651D01*
X196344552Y-90358423D01*
X195797480Y-90131259D01*
X195205119Y-90130742D01*
X195187554Y-90138000D01*
X192569767Y-87520213D01*
X194699392Y-87520213D01*
X194768857Y-87762397D01*
X195292302Y-87949144D01*
X195847368Y-87921362D01*
X196231143Y-87762397D01*
X196300608Y-87520213D01*
X195500000Y-86719605D01*
X194699392Y-87520213D01*
X192569767Y-87520213D01*
X190327000Y-85277446D01*
X190327000Y-78541242D01*
X190600000Y-78541242D01*
X190869410Y-78490549D01*
X191116846Y-78331328D01*
X191282843Y-78088385D01*
X191341242Y-77800000D01*
X191341242Y-75600000D01*
X191290549Y-75330590D01*
X191131328Y-75083154D01*
X191045229Y-75024325D01*
X192294903Y-73774651D01*
X192431013Y-73774651D01*
X192431013Y-73847651D01*
X192481706Y-74117061D01*
X192640927Y-74364497D01*
X192883870Y-74530494D01*
X193172255Y-74588893D01*
X194972255Y-74588893D01*
X195241665Y-74538200D01*
X195489101Y-74378979D01*
X195655098Y-74136036D01*
X195713497Y-73847651D01*
X195713497Y-72047651D01*
X195662804Y-71778241D01*
X195503583Y-71530805D01*
X195337904Y-71417601D01*
X195575407Y-71062152D01*
X195661978Y-70626929D01*
X197473000Y-72437951D01*
X197473000Y-72437951D01*
G37*
X197473000Y-72437951D02*
X197473000Y-83558687D01*
X197189720Y-82873097D01*
X196629851Y-82312249D01*
X195897972Y-82008346D01*
X195105505Y-82007655D01*
X194373097Y-82310280D01*
X193812249Y-82870149D01*
X193508346Y-83602028D01*
X193507655Y-84394495D01*
X193810280Y-85126903D01*
X194370149Y-85687751D01*
X194504839Y-85743679D01*
X194277603Y-85808857D01*
X194090856Y-86332302D01*
X194118638Y-86887368D01*
X194277603Y-87271143D01*
X194519787Y-87340608D01*
X195320395Y-86540000D01*
X195306253Y-86525858D01*
X195485858Y-86346253D01*
X195500000Y-86360395D01*
X195514143Y-86346253D01*
X195693748Y-86525858D01*
X195679605Y-86540000D01*
X196480213Y-87340608D01*
X196722397Y-87271143D01*
X196909144Y-86747698D01*
X196881362Y-86192632D01*
X196722397Y-85808857D01*
X196495840Y-85743874D01*
X196626903Y-85689720D01*
X197187751Y-85129851D01*
X197473000Y-84442896D01*
X197473000Y-93557446D01*
X195812818Y-95217628D01*
X195797480Y-95211259D01*
X195205119Y-95210742D01*
X194657651Y-95436951D01*
X194238423Y-95855448D01*
X194231135Y-95873000D01*
X189259057Y-95873000D01*
X188862595Y-95279653D01*
X188237431Y-94861932D01*
X188061816Y-94827000D01*
X193120000Y-94827000D01*
X193436479Y-94764048D01*
X193704777Y-94584777D01*
X195187182Y-93102372D01*
X195202520Y-93108741D01*
X195794881Y-93109258D01*
X196342349Y-92883049D01*
X196761577Y-92464552D01*
X196988741Y-91917480D01*
X196989258Y-91325119D01*
X196763049Y-90777651D01*
X196344552Y-90358423D01*
X195797480Y-90131259D01*
X195205119Y-90130742D01*
X195187554Y-90138000D01*
X192569767Y-87520213D01*
X194699392Y-87520213D01*
X194768857Y-87762397D01*
X195292302Y-87949144D01*
X195847368Y-87921362D01*
X196231143Y-87762397D01*
X196300608Y-87520213D01*
X195500000Y-86719605D01*
X194699392Y-87520213D01*
X192569767Y-87520213D01*
X190327000Y-85277446D01*
X190327000Y-78541242D01*
X190600000Y-78541242D01*
X190869410Y-78490549D01*
X191116846Y-78331328D01*
X191282843Y-78088385D01*
X191341242Y-77800000D01*
X191341242Y-75600000D01*
X191290549Y-75330590D01*
X191131328Y-75083154D01*
X191045229Y-75024325D01*
X192294903Y-73774651D01*
X192431013Y-73774651D01*
X192431013Y-73847651D01*
X192481706Y-74117061D01*
X192640927Y-74364497D01*
X192883870Y-74530494D01*
X193172255Y-74588893D01*
X194972255Y-74588893D01*
X195241665Y-74538200D01*
X195489101Y-74378979D01*
X195655098Y-74136036D01*
X195713497Y-73847651D01*
X195713497Y-72047651D01*
X195662804Y-71778241D01*
X195503583Y-71530805D01*
X195337904Y-71417601D01*
X195575407Y-71062152D01*
X195661978Y-70626929D01*
X197473000Y-72437951D01*
G36*
X160867322Y-58907017D02*
X160573335Y-59615014D01*
X160572879Y-60137567D01*
X159422560Y-61287886D01*
X159318068Y-60762569D01*
X158900347Y-60137405D01*
X158275183Y-59719684D01*
X157537752Y-59573000D01*
X157462248Y-59573000D01*
X156724817Y-59719684D01*
X156099653Y-60137405D01*
X155681932Y-60762569D01*
X155535248Y-61500000D01*
X155681932Y-62237431D01*
X156099653Y-62862595D01*
X156724817Y-63280316D01*
X157313111Y-63397335D01*
X154323095Y-66387351D01*
X154000000Y-66323084D01*
X153415642Y-66439320D01*
X152920248Y-66770332D01*
X152730000Y-67055058D01*
X152539752Y-66770332D01*
X152044358Y-66439320D01*
X151460000Y-66323084D01*
X150875642Y-66439320D01*
X150380248Y-66770332D01*
X150170336Y-67084487D01*
X150012151Y-67115952D01*
X149743852Y-67295223D01*
X147966076Y-69073000D01*
X140720000Y-69073000D01*
X140441072Y-69128483D01*
X141484778Y-68084777D01*
X141664048Y-67816479D01*
X141727000Y-67500000D01*
X141727000Y-67402407D01*
X143772735Y-67402407D01*
X144004717Y-67963846D01*
X144433894Y-68393773D01*
X144994928Y-68626735D01*
X145602407Y-68627265D01*
X146163846Y-68395283D01*
X146593773Y-67966106D01*
X146826735Y-67405072D01*
X146827265Y-66797593D01*
X146595283Y-66236154D01*
X146166106Y-65806227D01*
X145605072Y-65573265D01*
X144997593Y-65572735D01*
X144436154Y-65804717D01*
X144006227Y-66233894D01*
X143773265Y-66794928D01*
X143772735Y-67402407D01*
X141727000Y-67402407D01*
X141727000Y-63522944D01*
X141664048Y-63206465D01*
X141484777Y-62938167D01*
X139461833Y-60915223D01*
X139193535Y-60735952D01*
X138927450Y-60683024D01*
X138814584Y-60409868D01*
X138272983Y-59867322D01*
X137564986Y-59573335D01*
X136798378Y-59572666D01*
X136089868Y-59865416D01*
X135547322Y-60407017D01*
X135253335Y-61115014D01*
X135252666Y-61881622D01*
X135545416Y-62590132D01*
X136087017Y-63132678D01*
X136795014Y-63426665D01*
X137561622Y-63427334D01*
X138270132Y-63134584D01*
X138806576Y-62599074D01*
X140073000Y-63865498D01*
X140073000Y-67157445D01*
X138951846Y-68278600D01*
X138663521Y-68335952D01*
X138395222Y-68515223D01*
X135883094Y-71027351D01*
X135560000Y-70963084D01*
X134975642Y-71079320D01*
X134480248Y-71410332D01*
X134290000Y-71695058D01*
X134099752Y-71410332D01*
X133604358Y-71079320D01*
X133020000Y-70963084D01*
X132435642Y-71079320D01*
X131940248Y-71410332D01*
X131750000Y-71695058D01*
X131559752Y-71410332D01*
X131064358Y-71079320D01*
X130480000Y-70963084D01*
X129895642Y-71079320D01*
X129400248Y-71410332D01*
X129069236Y-71905726D01*
X128953000Y-72490084D01*
X128953000Y-72549916D01*
X129069236Y-73134274D01*
X129400248Y-73629668D01*
X129673000Y-73811915D01*
X129673000Y-74589493D01*
X129636154Y-74604717D01*
X129206227Y-75033894D01*
X128973265Y-75594928D01*
X128972735Y-76202407D01*
X129204717Y-76763846D01*
X129633894Y-77193773D01*
X129711733Y-77226095D01*
X129735952Y-77347849D01*
X129915223Y-77616147D01*
X130673000Y-78373925D01*
X130673000Y-79100000D01*
X130735952Y-79416479D01*
X130915223Y-79684777D01*
X131815223Y-80584777D01*
X132083521Y-80764048D01*
X132400000Y-80827000D01*
X132963838Y-80827000D01*
X133009451Y-81069410D01*
X133168672Y-81316846D01*
X133411615Y-81482843D01*
X133700000Y-81541242D01*
X135300000Y-81541242D01*
X135569410Y-81490549D01*
X135816846Y-81331328D01*
X135960909Y-81120486D01*
X136133894Y-81293773D01*
X136173000Y-81310011D01*
X136173000Y-92000000D01*
X136235952Y-92316479D01*
X136415223Y-92584777D01*
X137273000Y-93442554D01*
X137273000Y-96600000D01*
X137335952Y-96916479D01*
X137515223Y-97184777D01*
X138682518Y-98352073D01*
X138573335Y-98615014D01*
X138572666Y-99381622D01*
X138865416Y-100090132D01*
X139407017Y-100632678D01*
X139504123Y-100673000D01*
X127842554Y-100673000D01*
X127632156Y-100462602D01*
X127649868Y-100436093D01*
X127827000Y-99545589D01*
X127827000Y-99454411D01*
X127649868Y-98563907D01*
X127145437Y-97808974D01*
X126390504Y-97304543D01*
X125500000Y-97127411D01*
X124609496Y-97304543D01*
X123854563Y-97808974D01*
X123350132Y-98563907D01*
X123173000Y-99454411D01*
X123173000Y-99545589D01*
X123350132Y-100436093D01*
X123854563Y-101191026D01*
X124609496Y-101695457D01*
X125500000Y-101872589D01*
X126390504Y-101695457D01*
X126471670Y-101641224D01*
X126915223Y-102084777D01*
X127183521Y-102264048D01*
X127500000Y-102327000D01*
X140684654Y-102327000D01*
X144442431Y-106084777D01*
X144710729Y-106264048D01*
X144882267Y-106298169D01*
X145117662Y-106650463D01*
X145645499Y-107003152D01*
X146268125Y-107127000D01*
X146331875Y-107127000D01*
X146954501Y-107003152D01*
X147482338Y-106650463D01*
X147673000Y-106365117D01*
X147673000Y-106600000D01*
X147735952Y-106916479D01*
X147915223Y-107184777D01*
X150615223Y-109884778D01*
X150883521Y-110064048D01*
X151200000Y-110127000D01*
X151989493Y-110127000D01*
X152004717Y-110163846D01*
X152348937Y-110508668D01*
X152300000Y-110498758D01*
X150780000Y-110498758D01*
X150510590Y-110549451D01*
X150263154Y-110708672D01*
X150097157Y-110951615D01*
X150089971Y-110987102D01*
X149843418Y-110740118D01*
X149297080Y-110513259D01*
X148705515Y-110512742D01*
X148158783Y-110738648D01*
X147740118Y-111156582D01*
X147686863Y-111284835D01*
X147680742Y-111270059D01*
X147438764Y-111200841D01*
X146639605Y-112000000D01*
X146653748Y-112014143D01*
X146474143Y-112193748D01*
X146460000Y-112179605D01*
X145660841Y-112978764D01*
X145730059Y-113220742D01*
X146252780Y-113407155D01*
X146432299Y-113398146D01*
X142537445Y-117293001D01*
X141699999Y-117293001D01*
X141383520Y-117355953D01*
X141181652Y-117490837D01*
X140500000Y-117355248D01*
X139762569Y-117501932D01*
X139137405Y-117919653D01*
X138719684Y-118544817D01*
X138573000Y-119282248D01*
X138573000Y-119357752D01*
X138719684Y-120095183D01*
X139137405Y-120720347D01*
X139762569Y-121138068D01*
X140500000Y-121284752D01*
X141237431Y-121138068D01*
X141862595Y-120720347D01*
X142280316Y-120095183D01*
X142427000Y-119357752D01*
X142427000Y-119282248D01*
X142360315Y-118947001D01*
X142879999Y-118947001D01*
X143196478Y-118884049D01*
X143464776Y-118704778D01*
X148688713Y-113480842D01*
X148702920Y-113486741D01*
X149294485Y-113487258D01*
X149841217Y-113261352D01*
X150086939Y-113016059D01*
X150089451Y-113029410D01*
X150248672Y-113276846D01*
X150491615Y-113442843D01*
X150780000Y-113501242D01*
X152300000Y-113501242D01*
X152569410Y-113450549D01*
X152816846Y-113291328D01*
X152982843Y-113048385D01*
X153027674Y-112827000D01*
X155100000Y-112827000D01*
X155416479Y-112764048D01*
X155684777Y-112584777D01*
X155747974Y-112490196D01*
X157516995Y-110721175D01*
X157535952Y-110816479D01*
X157715223Y-111084777D01*
X159315223Y-112684778D01*
X159583521Y-112864048D01*
X159900000Y-112927000D01*
X160157446Y-112927000D01*
X160189204Y-112958758D01*
X159240000Y-112958758D01*
X158970590Y-113009451D01*
X158723154Y-113168672D01*
X158557157Y-113411615D01*
X158512326Y-113633000D01*
X157140000Y-113633000D01*
X156823521Y-113695952D01*
X156555223Y-113875223D01*
X153057445Y-117373001D01*
X146799999Y-117373001D01*
X146487064Y-117435248D01*
X146483520Y-117435953D01*
X146380687Y-117504663D01*
X146305072Y-117473265D01*
X145697593Y-117472735D01*
X145136154Y-117704717D01*
X144706227Y-118133894D01*
X144473265Y-118694928D01*
X144472735Y-119302407D01*
X144704717Y-119863846D01*
X145133894Y-120293773D01*
X145173000Y-120310011D01*
X145173000Y-122874579D01*
X144779653Y-123137405D01*
X144361932Y-123762569D01*
X144215248Y-124500000D01*
X144361932Y-125237431D01*
X144779653Y-125862595D01*
X145094547Y-126073000D01*
X144242555Y-126073000D01*
X143317482Y-125147927D01*
X143426665Y-124884986D01*
X143427334Y-124118378D01*
X143134584Y-123409868D01*
X142592983Y-122867322D01*
X141884986Y-122573335D01*
X141118378Y-122572666D01*
X140409868Y-122865416D01*
X139867322Y-123407017D01*
X139573335Y-124115014D01*
X139572666Y-124881622D01*
X139865416Y-125590132D01*
X140407017Y-126132678D01*
X141115014Y-126426665D01*
X141881622Y-126427334D01*
X142147798Y-126317352D01*
X143120445Y-127290000D01*
X110710000Y-127290000D01*
X110710000Y-124500000D01*
X114135248Y-124500000D01*
X114281932Y-125237431D01*
X114699653Y-125862595D01*
X115324817Y-126280316D01*
X116062248Y-126427000D01*
X116137752Y-126427000D01*
X116875183Y-126280316D01*
X117500347Y-125862595D01*
X117918068Y-125237431D01*
X118064752Y-124500000D01*
X117918068Y-123762569D01*
X117500347Y-123137405D01*
X116927000Y-122754307D01*
X116927000Y-117900000D01*
X123158758Y-117900000D01*
X123158758Y-121100000D01*
X123209451Y-121369410D01*
X123368672Y-121616846D01*
X123611615Y-121782843D01*
X123900000Y-121841242D01*
X127100000Y-121841242D01*
X127369410Y-121790549D01*
X127616846Y-121631328D01*
X127782843Y-121388385D01*
X127841242Y-121100000D01*
X127841242Y-117900000D01*
X127790549Y-117630590D01*
X127631328Y-117383154D01*
X127388385Y-117217157D01*
X127100000Y-117158758D01*
X123900000Y-117158758D01*
X123630590Y-117209451D01*
X123383154Y-117368672D01*
X123217157Y-117611615D01*
X123158758Y-117900000D01*
X116927000Y-117900000D01*
X116927000Y-111911807D01*
X131711797Y-111911807D01*
X132005508Y-112564776D01*
X132526742Y-113055642D01*
X133088195Y-113288195D01*
X133373000Y-113171432D01*
X133373000Y-111627000D01*
X133627000Y-111627000D01*
X133627000Y-113171432D01*
X133911805Y-113288195D01*
X134473258Y-113055642D01*
X134994492Y-112564776D01*
X135288203Y-111911807D01*
X135239580Y-111792780D01*
X145052845Y-111792780D01*
X145080659Y-112347049D01*
X145239258Y-112729941D01*
X145481236Y-112799159D01*
X146280395Y-112000000D01*
X145481236Y-111200841D01*
X145239258Y-111270059D01*
X145052845Y-111792780D01*
X135239580Y-111792780D01*
X135171858Y-111627000D01*
X133627000Y-111627000D01*
X133373000Y-111627000D01*
X131828142Y-111627000D01*
X131711797Y-111911807D01*
X116927000Y-111911807D01*
X116927000Y-111088193D01*
X131711797Y-111088193D01*
X131828142Y-111373000D01*
X133373000Y-111373000D01*
X133373000Y-109828568D01*
X133627000Y-109828568D01*
X133627000Y-111373000D01*
X135171858Y-111373000D01*
X135288203Y-111088193D01*
X135258086Y-111021236D01*
X145660841Y-111021236D01*
X146460000Y-111820395D01*
X147259159Y-111021236D01*
X147189941Y-110779258D01*
X146667220Y-110592845D01*
X146112951Y-110620659D01*
X145730059Y-110779258D01*
X145660841Y-111021236D01*
X135258086Y-111021236D01*
X134994492Y-110435224D01*
X134473258Y-109944358D01*
X133911805Y-109711805D01*
X133627000Y-109828568D01*
X133373000Y-109828568D01*
X133088195Y-109711805D01*
X132526742Y-109944358D01*
X132005508Y-110435224D01*
X131711797Y-111088193D01*
X116927000Y-111088193D01*
X116927000Y-99702554D01*
X122182796Y-94446758D01*
X122746563Y-94447250D01*
X123278589Y-94227422D01*
X123685991Y-93820730D01*
X123729835Y-93715142D01*
X123772578Y-93818589D01*
X124179270Y-94225991D01*
X124710911Y-94446748D01*
X125286563Y-94447250D01*
X125818589Y-94227422D01*
X126225991Y-93820730D01*
X126269835Y-93715142D01*
X126312578Y-93818589D01*
X126719270Y-94225991D01*
X127250911Y-94446748D01*
X127826563Y-94447250D01*
X128358589Y-94227422D01*
X128765991Y-93820730D01*
X128986748Y-93289089D01*
X128987250Y-92713437D01*
X128767422Y-92181411D01*
X128360730Y-91774009D01*
X127829089Y-91553252D01*
X127253437Y-91552750D01*
X126721411Y-91772578D01*
X126314009Y-92179270D01*
X126270165Y-92284858D01*
X126227422Y-92181411D01*
X125827000Y-91780290D01*
X125827000Y-88842554D01*
X126505090Y-88164464D01*
X126654971Y-88226700D01*
X127342014Y-88227299D01*
X127976989Y-87964933D01*
X128463226Y-87479544D01*
X128726700Y-86845029D01*
X128727299Y-86157986D01*
X128464933Y-85523011D01*
X127979544Y-85036774D01*
X127345029Y-84773300D01*
X126657986Y-84772701D01*
X126023011Y-85035067D01*
X125536774Y-85520456D01*
X125273300Y-86154971D01*
X125272701Y-86842014D01*
X125335777Y-86994669D01*
X124415223Y-87915223D01*
X124235952Y-88183521D01*
X124173000Y-88500000D01*
X124173000Y-91780974D01*
X123774009Y-92179270D01*
X123730165Y-92284858D01*
X123687422Y-92181411D01*
X123280730Y-91774009D01*
X122749089Y-91553252D01*
X122173437Y-91552750D01*
X121641411Y-91772578D01*
X121234009Y-92179270D01*
X121013252Y-92710911D01*
X121012758Y-93277688D01*
X115515223Y-98775223D01*
X115335952Y-99043521D01*
X115273000Y-99360000D01*
X115273000Y-122754307D01*
X114699653Y-123137405D01*
X114281932Y-123762569D01*
X114135248Y-124500000D01*
X110710000Y-124500000D01*
X110710000Y-82652532D01*
X126027073Y-82652532D01*
X126125736Y-82919387D01*
X126735461Y-83145908D01*
X127385460Y-83121856D01*
X127874264Y-82919387D01*
X127972927Y-82652532D01*
X127000000Y-81679605D01*
X126027073Y-82652532D01*
X110710000Y-82652532D01*
X110710000Y-81235461D01*
X125354092Y-81235461D01*
X125378144Y-81885460D01*
X125580613Y-82374264D01*
X125847468Y-82472927D01*
X126820395Y-81500000D01*
X125847468Y-80527073D01*
X125580613Y-80625736D01*
X125354092Y-81235461D01*
X110710000Y-81235461D01*
X110710000Y-64400001D01*
X123172999Y-64400001D01*
X123172999Y-76620001D01*
X123235951Y-76936480D01*
X123415222Y-77204778D01*
X125495221Y-79284777D01*
X125763519Y-79464048D01*
X126079998Y-79527000D01*
X126373448Y-79527000D01*
X126720665Y-79874217D01*
X126614540Y-79878144D01*
X126125736Y-80080613D01*
X126027073Y-80347468D01*
X127000000Y-81320395D01*
X127014143Y-81306253D01*
X127193748Y-81485858D01*
X127179605Y-81500000D01*
X128152532Y-82472927D01*
X128419387Y-82374264D01*
X128636449Y-81790001D01*
X128673000Y-81826552D01*
X128673000Y-83630051D01*
X128735952Y-83946530D01*
X128915223Y-84214828D01*
X130282260Y-85581866D01*
X130033667Y-85953911D01*
X129925043Y-86500000D01*
X130033667Y-87046089D01*
X130343002Y-87509041D01*
X130553000Y-87649357D01*
X130553000Y-89060000D01*
X130615952Y-89376479D01*
X130795223Y-89644777D01*
X131682518Y-90532072D01*
X131573335Y-90795014D01*
X131572666Y-91561622D01*
X131865416Y-92270132D01*
X132407017Y-92812678D01*
X133115014Y-93106665D01*
X133881622Y-93107334D01*
X134590132Y-92814584D01*
X135132678Y-92272983D01*
X135426665Y-91564986D01*
X135427334Y-90798378D01*
X135134584Y-90089868D01*
X134592983Y-89547322D01*
X133884986Y-89253335D01*
X133118378Y-89252666D01*
X132852202Y-89362648D01*
X132207000Y-88717446D01*
X132207000Y-87649357D01*
X132416998Y-87509041D01*
X132726333Y-87046089D01*
X132834957Y-86500000D01*
X132726333Y-85953911D01*
X132416998Y-85490959D01*
X132170431Y-85326208D01*
X132144048Y-85193572D01*
X132077230Y-85093572D01*
X131964777Y-84925273D01*
X130327000Y-83287497D01*
X130327000Y-81483998D01*
X130264048Y-81167519D01*
X130084777Y-80899221D01*
X127300779Y-78115223D01*
X127032481Y-77935952D01*
X126716002Y-77873000D01*
X126422552Y-77873000D01*
X125864680Y-77315128D01*
X126254005Y-77153864D01*
X126328139Y-76907745D01*
X125500000Y-76079605D01*
X125485858Y-76093748D01*
X125306252Y-75914142D01*
X125320395Y-75900000D01*
X125679605Y-75900000D01*
X126507745Y-76728139D01*
X126753864Y-76654005D01*
X126946965Y-76116777D01*
X126919778Y-75546546D01*
X126753864Y-75145995D01*
X126507745Y-75071861D01*
X125679605Y-75900000D01*
X125320395Y-75900000D01*
X125306252Y-75885858D01*
X125485858Y-75706252D01*
X125500000Y-75720395D01*
X126328139Y-74892255D01*
X126254005Y-74646136D01*
X125716777Y-74453035D01*
X125146546Y-74480222D01*
X124826999Y-74612583D01*
X124826999Y-65249041D01*
X129088086Y-65249041D01*
X129327611Y-65755134D01*
X129742577Y-66131041D01*
X130130961Y-66291904D01*
X130353000Y-66169915D01*
X130353000Y-65027000D01*
X129209371Y-65027000D01*
X129088086Y-65249041D01*
X124826999Y-65249041D01*
X124826999Y-64742555D01*
X126042555Y-63527000D01*
X130085320Y-63527000D01*
X129742577Y-63668959D01*
X129327611Y-64044866D01*
X129088086Y-64550959D01*
X129209371Y-64773000D01*
X130353000Y-64773000D01*
X130353000Y-64753000D01*
X130607000Y-64753000D01*
X130607000Y-64773000D01*
X130627000Y-64773000D01*
X130627000Y-65027000D01*
X130607000Y-65027000D01*
X130607000Y-66169915D01*
X130829039Y-66291904D01*
X131217423Y-66131041D01*
X131632389Y-65755134D01*
X131689518Y-65634425D01*
X131940248Y-66009668D01*
X132435642Y-66340680D01*
X133020000Y-66456916D01*
X133604358Y-66340680D01*
X134099752Y-66009668D01*
X134290000Y-65724942D01*
X134480248Y-66009668D01*
X134975642Y-66340680D01*
X135560000Y-66456916D01*
X136144358Y-66340680D01*
X136639752Y-66009668D01*
X136702223Y-65916173D01*
X136761673Y-66059698D01*
X136940301Y-66238327D01*
X137173690Y-66335000D01*
X137814250Y-66335000D01*
X137973000Y-66176250D01*
X137973000Y-65027000D01*
X138227000Y-65027000D01*
X138227000Y-66176250D01*
X138385750Y-66335000D01*
X139026310Y-66335000D01*
X139259699Y-66238327D01*
X139438327Y-66059698D01*
X139535000Y-65826309D01*
X139535000Y-65185750D01*
X139376250Y-65027000D01*
X138227000Y-65027000D01*
X137973000Y-65027000D01*
X137953000Y-65027000D01*
X137953000Y-64773000D01*
X137973000Y-64773000D01*
X137973000Y-63623750D01*
X138227000Y-63623750D01*
X138227000Y-64773000D01*
X139376250Y-64773000D01*
X139535000Y-64614250D01*
X139535000Y-63973691D01*
X139438327Y-63740302D01*
X139259699Y-63561673D01*
X139026310Y-63465000D01*
X138385750Y-63465000D01*
X138227000Y-63623750D01*
X137973000Y-63623750D01*
X137814250Y-63465000D01*
X137173690Y-63465000D01*
X136940301Y-63561673D01*
X136761673Y-63740302D01*
X136702223Y-63883827D01*
X136639752Y-63790332D01*
X136144358Y-63459320D01*
X135560000Y-63343084D01*
X135236905Y-63407351D01*
X133944777Y-62115223D01*
X133676479Y-61935952D01*
X133360000Y-61873000D01*
X125700000Y-61873000D01*
X125383521Y-61935952D01*
X125115222Y-62115223D01*
X123415222Y-63815224D01*
X123235951Y-64083522D01*
X123172999Y-64400001D01*
X110710000Y-64400001D01*
X110710000Y-58710000D01*
X161064683Y-58710000D01*
X160867322Y-58907017D01*
X160867322Y-58907017D01*
G37*
X160867322Y-58907017D02*
X160573335Y-59615014D01*
X160572879Y-60137567D01*
X159422560Y-61287886D01*
X159318068Y-60762569D01*
X158900347Y-60137405D01*
X158275183Y-59719684D01*
X157537752Y-59573000D01*
X157462248Y-59573000D01*
X156724817Y-59719684D01*
X156099653Y-60137405D01*
X155681932Y-60762569D01*
X155535248Y-61500000D01*
X155681932Y-62237431D01*
X156099653Y-62862595D01*
X156724817Y-63280316D01*
X157313111Y-63397335D01*
X154323095Y-66387351D01*
X154000000Y-66323084D01*
X153415642Y-66439320D01*
X152920248Y-66770332D01*
X152730000Y-67055058D01*
X152539752Y-66770332D01*
X152044358Y-66439320D01*
X151460000Y-66323084D01*
X150875642Y-66439320D01*
X150380248Y-66770332D01*
X150170336Y-67084487D01*
X150012151Y-67115952D01*
X149743852Y-67295223D01*
X147966076Y-69073000D01*
X140720000Y-69073000D01*
X140441072Y-69128483D01*
X141484778Y-68084777D01*
X141664048Y-67816479D01*
X141727000Y-67500000D01*
X141727000Y-67402407D01*
X143772735Y-67402407D01*
X144004717Y-67963846D01*
X144433894Y-68393773D01*
X144994928Y-68626735D01*
X145602407Y-68627265D01*
X146163846Y-68395283D01*
X146593773Y-67966106D01*
X146826735Y-67405072D01*
X146827265Y-66797593D01*
X146595283Y-66236154D01*
X146166106Y-65806227D01*
X145605072Y-65573265D01*
X144997593Y-65572735D01*
X144436154Y-65804717D01*
X144006227Y-66233894D01*
X143773265Y-66794928D01*
X143772735Y-67402407D01*
X141727000Y-67402407D01*
X141727000Y-63522944D01*
X141664048Y-63206465D01*
X141484777Y-62938167D01*
X139461833Y-60915223D01*
X139193535Y-60735952D01*
X138927450Y-60683024D01*
X138814584Y-60409868D01*
X138272983Y-59867322D01*
X137564986Y-59573335D01*
X136798378Y-59572666D01*
X136089868Y-59865416D01*
X135547322Y-60407017D01*
X135253335Y-61115014D01*
X135252666Y-61881622D01*
X135545416Y-62590132D01*
X136087017Y-63132678D01*
X136795014Y-63426665D01*
X137561622Y-63427334D01*
X138270132Y-63134584D01*
X138806576Y-62599074D01*
X140073000Y-63865498D01*
X140073000Y-67157445D01*
X138951846Y-68278600D01*
X138663521Y-68335952D01*
X138395222Y-68515223D01*
X135883094Y-71027351D01*
X135560000Y-70963084D01*
X134975642Y-71079320D01*
X134480248Y-71410332D01*
X134290000Y-71695058D01*
X134099752Y-71410332D01*
X133604358Y-71079320D01*
X133020000Y-70963084D01*
X132435642Y-71079320D01*
X131940248Y-71410332D01*
X131750000Y-71695058D01*
X131559752Y-71410332D01*
X131064358Y-71079320D01*
X130480000Y-70963084D01*
X129895642Y-71079320D01*
X129400248Y-71410332D01*
X129069236Y-71905726D01*
X128953000Y-72490084D01*
X128953000Y-72549916D01*
X129069236Y-73134274D01*
X129400248Y-73629668D01*
X129673000Y-73811915D01*
X129673000Y-74589493D01*
X129636154Y-74604717D01*
X129206227Y-75033894D01*
X128973265Y-75594928D01*
X128972735Y-76202407D01*
X129204717Y-76763846D01*
X129633894Y-77193773D01*
X129711733Y-77226095D01*
X129735952Y-77347849D01*
X129915223Y-77616147D01*
X130673000Y-78373925D01*
X130673000Y-79100000D01*
X130735952Y-79416479D01*
X130915223Y-79684777D01*
X131815223Y-80584777D01*
X132083521Y-80764048D01*
X132400000Y-80827000D01*
X132963838Y-80827000D01*
X133009451Y-81069410D01*
X133168672Y-81316846D01*
X133411615Y-81482843D01*
X133700000Y-81541242D01*
X135300000Y-81541242D01*
X135569410Y-81490549D01*
X135816846Y-81331328D01*
X135960909Y-81120486D01*
X136133894Y-81293773D01*
X136173000Y-81310011D01*
X136173000Y-92000000D01*
X136235952Y-92316479D01*
X136415223Y-92584777D01*
X137273000Y-93442554D01*
X137273000Y-96600000D01*
X137335952Y-96916479D01*
X137515223Y-97184777D01*
X138682518Y-98352073D01*
X138573335Y-98615014D01*
X138572666Y-99381622D01*
X138865416Y-100090132D01*
X139407017Y-100632678D01*
X139504123Y-100673000D01*
X127842554Y-100673000D01*
X127632156Y-100462602D01*
X127649868Y-100436093D01*
X127827000Y-99545589D01*
X127827000Y-99454411D01*
X127649868Y-98563907D01*
X127145437Y-97808974D01*
X126390504Y-97304543D01*
X125500000Y-97127411D01*
X124609496Y-97304543D01*
X123854563Y-97808974D01*
X123350132Y-98563907D01*
X123173000Y-99454411D01*
X123173000Y-99545589D01*
X123350132Y-100436093D01*
X123854563Y-101191026D01*
X124609496Y-101695457D01*
X125500000Y-101872589D01*
X126390504Y-101695457D01*
X126471670Y-101641224D01*
X126915223Y-102084777D01*
X127183521Y-102264048D01*
X127500000Y-102327000D01*
X140684654Y-102327000D01*
X144442431Y-106084777D01*
X144710729Y-106264048D01*
X144882267Y-106298169D01*
X145117662Y-106650463D01*
X145645499Y-107003152D01*
X146268125Y-107127000D01*
X146331875Y-107127000D01*
X146954501Y-107003152D01*
X147482338Y-106650463D01*
X147673000Y-106365117D01*
X147673000Y-106600000D01*
X147735952Y-106916479D01*
X147915223Y-107184777D01*
X150615223Y-109884778D01*
X150883521Y-110064048D01*
X151200000Y-110127000D01*
X151989493Y-110127000D01*
X152004717Y-110163846D01*
X152348937Y-110508668D01*
X152300000Y-110498758D01*
X150780000Y-110498758D01*
X150510590Y-110549451D01*
X150263154Y-110708672D01*
X150097157Y-110951615D01*
X150089971Y-110987102D01*
X149843418Y-110740118D01*
X149297080Y-110513259D01*
X148705515Y-110512742D01*
X148158783Y-110738648D01*
X147740118Y-111156582D01*
X147686863Y-111284835D01*
X147680742Y-111270059D01*
X147438764Y-111200841D01*
X146639605Y-112000000D01*
X146653748Y-112014143D01*
X146474143Y-112193748D01*
X146460000Y-112179605D01*
X145660841Y-112978764D01*
X145730059Y-113220742D01*
X146252780Y-113407155D01*
X146432299Y-113398146D01*
X142537445Y-117293001D01*
X141699999Y-117293001D01*
X141383520Y-117355953D01*
X141181652Y-117490837D01*
X140500000Y-117355248D01*
X139762569Y-117501932D01*
X139137405Y-117919653D01*
X138719684Y-118544817D01*
X138573000Y-119282248D01*
X138573000Y-119357752D01*
X138719684Y-120095183D01*
X139137405Y-120720347D01*
X139762569Y-121138068D01*
X140500000Y-121284752D01*
X141237431Y-121138068D01*
X141862595Y-120720347D01*
X142280316Y-120095183D01*
X142427000Y-119357752D01*
X142427000Y-119282248D01*
X142360315Y-118947001D01*
X142879999Y-118947001D01*
X143196478Y-118884049D01*
X143464776Y-118704778D01*
X148688713Y-113480842D01*
X148702920Y-113486741D01*
X149294485Y-113487258D01*
X149841217Y-113261352D01*
X150086939Y-113016059D01*
X150089451Y-113029410D01*
X150248672Y-113276846D01*
X150491615Y-113442843D01*
X150780000Y-113501242D01*
X152300000Y-113501242D01*
X152569410Y-113450549D01*
X152816846Y-113291328D01*
X152982843Y-113048385D01*
X153027674Y-112827000D01*
X155100000Y-112827000D01*
X155416479Y-112764048D01*
X155684777Y-112584777D01*
X155747974Y-112490196D01*
X157516995Y-110721175D01*
X157535952Y-110816479D01*
X157715223Y-111084777D01*
X159315223Y-112684778D01*
X159583521Y-112864048D01*
X159900000Y-112927000D01*
X160157446Y-112927000D01*
X160189204Y-112958758D01*
X159240000Y-112958758D01*
X158970590Y-113009451D01*
X158723154Y-113168672D01*
X158557157Y-113411615D01*
X158512326Y-113633000D01*
X157140000Y-113633000D01*
X156823521Y-113695952D01*
X156555223Y-113875223D01*
X153057445Y-117373001D01*
X146799999Y-117373001D01*
X146487064Y-117435248D01*
X146483520Y-117435953D01*
X146380687Y-117504663D01*
X146305072Y-117473265D01*
X145697593Y-117472735D01*
X145136154Y-117704717D01*
X144706227Y-118133894D01*
X144473265Y-118694928D01*
X144472735Y-119302407D01*
X144704717Y-119863846D01*
X145133894Y-120293773D01*
X145173000Y-120310011D01*
X145173000Y-122874579D01*
X144779653Y-123137405D01*
X144361932Y-123762569D01*
X144215248Y-124500000D01*
X144361932Y-125237431D01*
X144779653Y-125862595D01*
X145094547Y-126073000D01*
X144242555Y-126073000D01*
X143317482Y-125147927D01*
X143426665Y-124884986D01*
X143427334Y-124118378D01*
X143134584Y-123409868D01*
X142592983Y-122867322D01*
X141884986Y-122573335D01*
X141118378Y-122572666D01*
X140409868Y-122865416D01*
X139867322Y-123407017D01*
X139573335Y-124115014D01*
X139572666Y-124881622D01*
X139865416Y-125590132D01*
X140407017Y-126132678D01*
X141115014Y-126426665D01*
X141881622Y-126427334D01*
X142147798Y-126317352D01*
X143120445Y-127290000D01*
X110710000Y-127290000D01*
X110710000Y-124500000D01*
X114135248Y-124500000D01*
X114281932Y-125237431D01*
X114699653Y-125862595D01*
X115324817Y-126280316D01*
X116062248Y-126427000D01*
X116137752Y-126427000D01*
X116875183Y-126280316D01*
X117500347Y-125862595D01*
X117918068Y-125237431D01*
X118064752Y-124500000D01*
X117918068Y-123762569D01*
X117500347Y-123137405D01*
X116927000Y-122754307D01*
X116927000Y-117900000D01*
X123158758Y-117900000D01*
X123158758Y-121100000D01*
X123209451Y-121369410D01*
X123368672Y-121616846D01*
X123611615Y-121782843D01*
X123900000Y-121841242D01*
X127100000Y-121841242D01*
X127369410Y-121790549D01*
X127616846Y-121631328D01*
X127782843Y-121388385D01*
X127841242Y-121100000D01*
X127841242Y-117900000D01*
X127790549Y-117630590D01*
X127631328Y-117383154D01*
X127388385Y-117217157D01*
X127100000Y-117158758D01*
X123900000Y-117158758D01*
X123630590Y-117209451D01*
X123383154Y-117368672D01*
X123217157Y-117611615D01*
X123158758Y-117900000D01*
X116927000Y-117900000D01*
X116927000Y-111911807D01*
X131711797Y-111911807D01*
X132005508Y-112564776D01*
X132526742Y-113055642D01*
X133088195Y-113288195D01*
X133373000Y-113171432D01*
X133373000Y-111627000D01*
X133627000Y-111627000D01*
X133627000Y-113171432D01*
X133911805Y-113288195D01*
X134473258Y-113055642D01*
X134994492Y-112564776D01*
X135288203Y-111911807D01*
X135239580Y-111792780D01*
X145052845Y-111792780D01*
X145080659Y-112347049D01*
X145239258Y-112729941D01*
X145481236Y-112799159D01*
X146280395Y-112000000D01*
X145481236Y-111200841D01*
X145239258Y-111270059D01*
X145052845Y-111792780D01*
X135239580Y-111792780D01*
X135171858Y-111627000D01*
X133627000Y-111627000D01*
X133373000Y-111627000D01*
X131828142Y-111627000D01*
X131711797Y-111911807D01*
X116927000Y-111911807D01*
X116927000Y-111088193D01*
X131711797Y-111088193D01*
X131828142Y-111373000D01*
X133373000Y-111373000D01*
X133373000Y-109828568D01*
X133627000Y-109828568D01*
X133627000Y-111373000D01*
X135171858Y-111373000D01*
X135288203Y-111088193D01*
X135258086Y-111021236D01*
X145660841Y-111021236D01*
X146460000Y-111820395D01*
X147259159Y-111021236D01*
X147189941Y-110779258D01*
X146667220Y-110592845D01*
X146112951Y-110620659D01*
X145730059Y-110779258D01*
X145660841Y-111021236D01*
X135258086Y-111021236D01*
X134994492Y-110435224D01*
X134473258Y-109944358D01*
X133911805Y-109711805D01*
X133627000Y-109828568D01*
X133373000Y-109828568D01*
X133088195Y-109711805D01*
X132526742Y-109944358D01*
X132005508Y-110435224D01*
X131711797Y-111088193D01*
X116927000Y-111088193D01*
X116927000Y-99702554D01*
X122182796Y-94446758D01*
X122746563Y-94447250D01*
X123278589Y-94227422D01*
X123685991Y-93820730D01*
X123729835Y-93715142D01*
X123772578Y-93818589D01*
X124179270Y-94225991D01*
X124710911Y-94446748D01*
X125286563Y-94447250D01*
X125818589Y-94227422D01*
X126225991Y-93820730D01*
X126269835Y-93715142D01*
X126312578Y-93818589D01*
X126719270Y-94225991D01*
X127250911Y-94446748D01*
X127826563Y-94447250D01*
X128358589Y-94227422D01*
X128765991Y-93820730D01*
X128986748Y-93289089D01*
X128987250Y-92713437D01*
X128767422Y-92181411D01*
X128360730Y-91774009D01*
X127829089Y-91553252D01*
X127253437Y-91552750D01*
X126721411Y-91772578D01*
X126314009Y-92179270D01*
X126270165Y-92284858D01*
X126227422Y-92181411D01*
X125827000Y-91780290D01*
X125827000Y-88842554D01*
X126505090Y-88164464D01*
X126654971Y-88226700D01*
X127342014Y-88227299D01*
X127976989Y-87964933D01*
X128463226Y-87479544D01*
X128726700Y-86845029D01*
X128727299Y-86157986D01*
X128464933Y-85523011D01*
X127979544Y-85036774D01*
X127345029Y-84773300D01*
X126657986Y-84772701D01*
X126023011Y-85035067D01*
X125536774Y-85520456D01*
X125273300Y-86154971D01*
X125272701Y-86842014D01*
X125335777Y-86994669D01*
X124415223Y-87915223D01*
X124235952Y-88183521D01*
X124173000Y-88500000D01*
X124173000Y-91780974D01*
X123774009Y-92179270D01*
X123730165Y-92284858D01*
X123687422Y-92181411D01*
X123280730Y-91774009D01*
X122749089Y-91553252D01*
X122173437Y-91552750D01*
X121641411Y-91772578D01*
X121234009Y-92179270D01*
X121013252Y-92710911D01*
X121012758Y-93277688D01*
X115515223Y-98775223D01*
X115335952Y-99043521D01*
X115273000Y-99360000D01*
X115273000Y-122754307D01*
X114699653Y-123137405D01*
X114281932Y-123762569D01*
X114135248Y-124500000D01*
X110710000Y-124500000D01*
X110710000Y-82652532D01*
X126027073Y-82652532D01*
X126125736Y-82919387D01*
X126735461Y-83145908D01*
X127385460Y-83121856D01*
X127874264Y-82919387D01*
X127972927Y-82652532D01*
X127000000Y-81679605D01*
X126027073Y-82652532D01*
X110710000Y-82652532D01*
X110710000Y-81235461D01*
X125354092Y-81235461D01*
X125378144Y-81885460D01*
X125580613Y-82374264D01*
X125847468Y-82472927D01*
X126820395Y-81500000D01*
X125847468Y-80527073D01*
X125580613Y-80625736D01*
X125354092Y-81235461D01*
X110710000Y-81235461D01*
X110710000Y-64400001D01*
X123172999Y-64400001D01*
X123172999Y-76620001D01*
X123235951Y-76936480D01*
X123415222Y-77204778D01*
X125495221Y-79284777D01*
X125763519Y-79464048D01*
X126079998Y-79527000D01*
X126373448Y-79527000D01*
X126720665Y-79874217D01*
X126614540Y-79878144D01*
X126125736Y-80080613D01*
X126027073Y-80347468D01*
X127000000Y-81320395D01*
X127014143Y-81306253D01*
X127193748Y-81485858D01*
X127179605Y-81500000D01*
X128152532Y-82472927D01*
X128419387Y-82374264D01*
X128636449Y-81790001D01*
X128673000Y-81826552D01*
X128673000Y-83630051D01*
X128735952Y-83946530D01*
X128915223Y-84214828D01*
X130282260Y-85581866D01*
X130033667Y-85953911D01*
X129925043Y-86500000D01*
X130033667Y-87046089D01*
X130343002Y-87509041D01*
X130553000Y-87649357D01*
X130553000Y-89060000D01*
X130615952Y-89376479D01*
X130795223Y-89644777D01*
X131682518Y-90532072D01*
X131573335Y-90795014D01*
X131572666Y-91561622D01*
X131865416Y-92270132D01*
X132407017Y-92812678D01*
X133115014Y-93106665D01*
X133881622Y-93107334D01*
X134590132Y-92814584D01*
X135132678Y-92272983D01*
X135426665Y-91564986D01*
X135427334Y-90798378D01*
X135134584Y-90089868D01*
X134592983Y-89547322D01*
X133884986Y-89253335D01*
X133118378Y-89252666D01*
X132852202Y-89362648D01*
X132207000Y-88717446D01*
X132207000Y-87649357D01*
X132416998Y-87509041D01*
X132726333Y-87046089D01*
X132834957Y-86500000D01*
X132726333Y-85953911D01*
X132416998Y-85490959D01*
X132170431Y-85326208D01*
X132144048Y-85193572D01*
X132077230Y-85093572D01*
X131964777Y-84925273D01*
X130327000Y-83287497D01*
X130327000Y-81483998D01*
X130264048Y-81167519D01*
X130084777Y-80899221D01*
X127300779Y-78115223D01*
X127032481Y-77935952D01*
X126716002Y-77873000D01*
X126422552Y-77873000D01*
X125864680Y-77315128D01*
X126254005Y-77153864D01*
X126328139Y-76907745D01*
X125500000Y-76079605D01*
X125485858Y-76093748D01*
X125306252Y-75914142D01*
X125320395Y-75900000D01*
X125679605Y-75900000D01*
X126507745Y-76728139D01*
X126753864Y-76654005D01*
X126946965Y-76116777D01*
X126919778Y-75546546D01*
X126753864Y-75145995D01*
X126507745Y-75071861D01*
X125679605Y-75900000D01*
X125320395Y-75900000D01*
X125306252Y-75885858D01*
X125485858Y-75706252D01*
X125500000Y-75720395D01*
X126328139Y-74892255D01*
X126254005Y-74646136D01*
X125716777Y-74453035D01*
X125146546Y-74480222D01*
X124826999Y-74612583D01*
X124826999Y-65249041D01*
X129088086Y-65249041D01*
X129327611Y-65755134D01*
X129742577Y-66131041D01*
X130130961Y-66291904D01*
X130353000Y-66169915D01*
X130353000Y-65027000D01*
X129209371Y-65027000D01*
X129088086Y-65249041D01*
X124826999Y-65249041D01*
X124826999Y-64742555D01*
X126042555Y-63527000D01*
X130085320Y-63527000D01*
X129742577Y-63668959D01*
X129327611Y-64044866D01*
X129088086Y-64550959D01*
X129209371Y-64773000D01*
X130353000Y-64773000D01*
X130353000Y-64753000D01*
X130607000Y-64753000D01*
X130607000Y-64773000D01*
X130627000Y-64773000D01*
X130627000Y-65027000D01*
X130607000Y-65027000D01*
X130607000Y-66169915D01*
X130829039Y-66291904D01*
X131217423Y-66131041D01*
X131632389Y-65755134D01*
X131689518Y-65634425D01*
X131940248Y-66009668D01*
X132435642Y-66340680D01*
X133020000Y-66456916D01*
X133604358Y-66340680D01*
X134099752Y-66009668D01*
X134290000Y-65724942D01*
X134480248Y-66009668D01*
X134975642Y-66340680D01*
X135560000Y-66456916D01*
X136144358Y-66340680D01*
X136639752Y-66009668D01*
X136702223Y-65916173D01*
X136761673Y-66059698D01*
X136940301Y-66238327D01*
X137173690Y-66335000D01*
X137814250Y-66335000D01*
X137973000Y-66176250D01*
X137973000Y-65027000D01*
X138227000Y-65027000D01*
X138227000Y-66176250D01*
X138385750Y-66335000D01*
X139026310Y-66335000D01*
X139259699Y-66238327D01*
X139438327Y-66059698D01*
X139535000Y-65826309D01*
X139535000Y-65185750D01*
X139376250Y-65027000D01*
X138227000Y-65027000D01*
X137973000Y-65027000D01*
X137953000Y-65027000D01*
X137953000Y-64773000D01*
X137973000Y-64773000D01*
X137973000Y-63623750D01*
X138227000Y-63623750D01*
X138227000Y-64773000D01*
X139376250Y-64773000D01*
X139535000Y-64614250D01*
X139535000Y-63973691D01*
X139438327Y-63740302D01*
X139259699Y-63561673D01*
X139026310Y-63465000D01*
X138385750Y-63465000D01*
X138227000Y-63623750D01*
X137973000Y-63623750D01*
X137814250Y-63465000D01*
X137173690Y-63465000D01*
X136940301Y-63561673D01*
X136761673Y-63740302D01*
X136702223Y-63883827D01*
X136639752Y-63790332D01*
X136144358Y-63459320D01*
X135560000Y-63343084D01*
X135236905Y-63407351D01*
X133944777Y-62115223D01*
X133676479Y-61935952D01*
X133360000Y-61873000D01*
X125700000Y-61873000D01*
X125383521Y-61935952D01*
X125115222Y-62115223D01*
X123415222Y-63815224D01*
X123235951Y-64083522D01*
X123172999Y-64400001D01*
X110710000Y-64400001D01*
X110710000Y-58710000D01*
X161064683Y-58710000D01*
X160867322Y-58907017D01*
G36*
X150875642Y-69320680D02*
X151460000Y-69436916D01*
X151783094Y-69372649D01*
X156384467Y-73974021D01*
X155955642Y-74059320D01*
X155460248Y-74390332D01*
X155270000Y-74675058D01*
X155079752Y-74390332D01*
X154584358Y-74059320D01*
X154000000Y-73943084D01*
X153415642Y-74059320D01*
X152920248Y-74390332D01*
X152857777Y-74483827D01*
X152798327Y-74340302D01*
X152619699Y-74161673D01*
X152386310Y-74065000D01*
X151745750Y-74065000D01*
X151587000Y-74223750D01*
X151587000Y-75373000D01*
X151607000Y-75373000D01*
X151607000Y-75627000D01*
X151587000Y-75627000D01*
X151587000Y-76776250D01*
X151745750Y-76935000D01*
X152386310Y-76935000D01*
X152619699Y-76838327D01*
X152798327Y-76659698D01*
X152857777Y-76516173D01*
X152920248Y-76609668D01*
X153415642Y-76940680D01*
X153844467Y-77025979D01*
X152997446Y-77873000D01*
X146173924Y-77873000D01*
X144216147Y-75915223D01*
X144022377Y-75785750D01*
X150025000Y-75785750D01*
X150025000Y-76426309D01*
X150121673Y-76659698D01*
X150300301Y-76838327D01*
X150533690Y-76935000D01*
X151174250Y-76935000D01*
X151333000Y-76776250D01*
X151333000Y-75627000D01*
X150183750Y-75627000D01*
X150025000Y-75785750D01*
X144022377Y-75785750D01*
X143947849Y-75735952D01*
X143826549Y-75711824D01*
X143795283Y-75636154D01*
X143366106Y-75206227D01*
X142805072Y-74973265D01*
X142197593Y-74972735D01*
X141636154Y-75204717D01*
X141206227Y-75633894D01*
X140973265Y-76194928D01*
X140972769Y-76763215D01*
X138783245Y-74573691D01*
X150025000Y-74573691D01*
X150025000Y-75214250D01*
X150183750Y-75373000D01*
X151333000Y-75373000D01*
X151333000Y-74223750D01*
X151174250Y-74065000D01*
X150533690Y-74065000D01*
X150300301Y-74161673D01*
X150121673Y-74340302D01*
X150025000Y-74573691D01*
X138783245Y-74573691D01*
X138255533Y-74045979D01*
X138684358Y-73960680D01*
X139179752Y-73629668D01*
X139510764Y-73134274D01*
X139516040Y-73107745D01*
X144471861Y-73107745D01*
X144545995Y-73353864D01*
X145083223Y-73546965D01*
X145653454Y-73519778D01*
X146054005Y-73353864D01*
X146128139Y-73107745D01*
X145300000Y-72279605D01*
X144471861Y-73107745D01*
X139516040Y-73107745D01*
X139627000Y-72549916D01*
X139627000Y-72490084D01*
X139572659Y-72216895D01*
X139906331Y-71883223D01*
X143853035Y-71883223D01*
X143880222Y-72453454D01*
X144046136Y-72854005D01*
X144292255Y-72928139D01*
X145120395Y-72100000D01*
X145479605Y-72100000D01*
X146307745Y-72928139D01*
X146553864Y-72854005D01*
X146746965Y-72316777D01*
X146719778Y-71746546D01*
X146553864Y-71345995D01*
X146307745Y-71271861D01*
X145479605Y-72100000D01*
X145120395Y-72100000D01*
X144292255Y-71271861D01*
X144046136Y-71345995D01*
X143853035Y-71883223D01*
X139906331Y-71883223D01*
X141062555Y-70727000D01*
X144833614Y-70727000D01*
X144545995Y-70846136D01*
X144471861Y-71092255D01*
X145300000Y-71920395D01*
X146128139Y-71092255D01*
X146054005Y-70846136D01*
X145722556Y-70727000D01*
X148308630Y-70727000D01*
X148625109Y-70664048D01*
X148893407Y-70484777D01*
X150385205Y-68992980D01*
X150875642Y-69320680D01*
X150875642Y-69320680D01*
G37*
X150875642Y-69320680D02*
X151460000Y-69436916D01*
X151783094Y-69372649D01*
X156384467Y-73974021D01*
X155955642Y-74059320D01*
X155460248Y-74390332D01*
X155270000Y-74675058D01*
X155079752Y-74390332D01*
X154584358Y-74059320D01*
X154000000Y-73943084D01*
X153415642Y-74059320D01*
X152920248Y-74390332D01*
X152857777Y-74483827D01*
X152798327Y-74340302D01*
X152619699Y-74161673D01*
X152386310Y-74065000D01*
X151745750Y-74065000D01*
X151587000Y-74223750D01*
X151587000Y-75373000D01*
X151607000Y-75373000D01*
X151607000Y-75627000D01*
X151587000Y-75627000D01*
X151587000Y-76776250D01*
X151745750Y-76935000D01*
X152386310Y-76935000D01*
X152619699Y-76838327D01*
X152798327Y-76659698D01*
X152857777Y-76516173D01*
X152920248Y-76609668D01*
X153415642Y-76940680D01*
X153844467Y-77025979D01*
X152997446Y-77873000D01*
X146173924Y-77873000D01*
X144216147Y-75915223D01*
X144022377Y-75785750D01*
X150025000Y-75785750D01*
X150025000Y-76426309D01*
X150121673Y-76659698D01*
X150300301Y-76838327D01*
X150533690Y-76935000D01*
X151174250Y-76935000D01*
X151333000Y-76776250D01*
X151333000Y-75627000D01*
X150183750Y-75627000D01*
X150025000Y-75785750D01*
X144022377Y-75785750D01*
X143947849Y-75735952D01*
X143826549Y-75711824D01*
X143795283Y-75636154D01*
X143366106Y-75206227D01*
X142805072Y-74973265D01*
X142197593Y-74972735D01*
X141636154Y-75204717D01*
X141206227Y-75633894D01*
X140973265Y-76194928D01*
X140972769Y-76763215D01*
X138783245Y-74573691D01*
X150025000Y-74573691D01*
X150025000Y-75214250D01*
X150183750Y-75373000D01*
X151333000Y-75373000D01*
X151333000Y-74223750D01*
X151174250Y-74065000D01*
X150533690Y-74065000D01*
X150300301Y-74161673D01*
X150121673Y-74340302D01*
X150025000Y-74573691D01*
X138783245Y-74573691D01*
X138255533Y-74045979D01*
X138684358Y-73960680D01*
X139179752Y-73629668D01*
X139510764Y-73134274D01*
X139516040Y-73107745D01*
X144471861Y-73107745D01*
X144545995Y-73353864D01*
X145083223Y-73546965D01*
X145653454Y-73519778D01*
X146054005Y-73353864D01*
X146128139Y-73107745D01*
X145300000Y-72279605D01*
X144471861Y-73107745D01*
X139516040Y-73107745D01*
X139627000Y-72549916D01*
X139627000Y-72490084D01*
X139572659Y-72216895D01*
X139906331Y-71883223D01*
X143853035Y-71883223D01*
X143880222Y-72453454D01*
X144046136Y-72854005D01*
X144292255Y-72928139D01*
X145120395Y-72100000D01*
X145479605Y-72100000D01*
X146307745Y-72928139D01*
X146553864Y-72854005D01*
X146746965Y-72316777D01*
X146719778Y-71746546D01*
X146553864Y-71345995D01*
X146307745Y-71271861D01*
X145479605Y-72100000D01*
X145120395Y-72100000D01*
X144292255Y-71271861D01*
X144046136Y-71345995D01*
X143853035Y-71883223D01*
X139906331Y-71883223D01*
X141062555Y-70727000D01*
X144833614Y-70727000D01*
X144545995Y-70846136D01*
X144471861Y-71092255D01*
X145300000Y-71920395D01*
X146128139Y-71092255D01*
X146054005Y-70846136D01*
X145722556Y-70727000D01*
X148308630Y-70727000D01*
X148625109Y-70664048D01*
X148893407Y-70484777D01*
X150385205Y-68992980D01*
X150875642Y-69320680D01*
M02*
