G04 #@! TF.FileFunction,Soldermask,Top*
%FSLAX46Y46*%
G04 Gerber Fmt 4.6, Leading zero omitted, Abs format (unit mm)*
G04 Created by KiCad (PCBNEW 4.0.6) date 06/15/17 21:01:38*
%MOMM*%
%LPD*%
G01*
G04 APERTURE LIST*
%ADD10C,0.100000*%
%ADD11C,2.800000*%
%ADD12O,2.800000X2.800000*%
%ADD13C,1.840000*%
%ADD14R,3.600000X3.600000*%
%ADD15O,3.600000X3.600000*%
%ADD16C,1.920000*%
%ADD17R,1.920000X1.920000*%
%ADD18R,2.600000X2.600000*%
%ADD19O,2.600000X2.600000*%
%ADD20C,1.924000*%
%ADD21R,2.200000X2.200000*%
%ADD22O,2.200000X2.200000*%
%ADD23C,2.000000*%
%ADD24C,2.200000*%
%ADD25C,1.800000*%
%ADD26O,1.800000X1.800000*%
%ADD27C,2.400000*%
%ADD28R,2.000000X2.000000*%
%ADD29O,2.000000X2.000000*%
G04 APERTURE END LIST*
D10*
D11*
X183000000Y-80500000D03*
D12*
X183000000Y-60180000D03*
D13*
X127540000Y-93000000D03*
X125000000Y-93000000D03*
X122460000Y-93000000D03*
D14*
X125500000Y-119500000D03*
D15*
X125500000Y-99500000D03*
D16*
X142500000Y-93000000D03*
X142500000Y-95540000D03*
D17*
X142500000Y-90460000D03*
D11*
X133500000Y-91180000D03*
D12*
X133500000Y-111500000D03*
D11*
X141500000Y-124500000D03*
D12*
X116100000Y-124500000D03*
D11*
X140500000Y-99000000D03*
D12*
X140500000Y-119320000D03*
D11*
X176000000Y-80500000D03*
D12*
X176000000Y-60180000D03*
D18*
X189500000Y-76700000D03*
D19*
X189500000Y-64000000D03*
D20*
X195500000Y-101780000D03*
X195500000Y-96700000D03*
X195500000Y-91620000D03*
X195500000Y-86540000D03*
D21*
X194072255Y-72947651D03*
D22*
X194072255Y-70407651D03*
X194072255Y-67867651D03*
D11*
X180500000Y-119400000D03*
D12*
X180500000Y-94000000D03*
D23*
X192700000Y-125700000D03*
X187700000Y-125700000D03*
D21*
X181000000Y-126000000D03*
D24*
X181000000Y-123460000D03*
D11*
X166500000Y-119400000D03*
D12*
X166500000Y-94000000D03*
D16*
X172460000Y-125500000D03*
X175000000Y-125500000D03*
D17*
X169920000Y-125500000D03*
D11*
X173500000Y-94000000D03*
D12*
X173500000Y-119400000D03*
D11*
X187500000Y-117000000D03*
D12*
X187500000Y-96680000D03*
D21*
X187620000Y-121700000D03*
D22*
X190160000Y-121700000D03*
X192700000Y-121700000D03*
D25*
X139000000Y-86500000D03*
D26*
X131380000Y-86500000D03*
D27*
X127000000Y-86500000D03*
X127000000Y-81500000D03*
D23*
X145300000Y-67100000D03*
X145300000Y-72100000D03*
D28*
X134500000Y-80000000D03*
D23*
X137000000Y-80000000D03*
X130500000Y-75900000D03*
X125500000Y-75900000D03*
D11*
X137180000Y-61500000D03*
D12*
X157500000Y-61500000D03*
D23*
X142500000Y-76500000D03*
D29*
X142500000Y-86660000D03*
D28*
X138100000Y-64900000D03*
D29*
X130480000Y-72520000D03*
X135560000Y-64900000D03*
X133020000Y-72520000D03*
X133020000Y-64900000D03*
X135560000Y-72520000D03*
X130480000Y-64900000D03*
X138100000Y-72520000D03*
D25*
X153000000Y-91000000D03*
D26*
X153000000Y-98620000D03*
D23*
X160000000Y-92000000D03*
X160000000Y-97000000D03*
D11*
X169000000Y-60000000D03*
D12*
X169000000Y-80320000D03*
D11*
X147600000Y-87000000D03*
D12*
X173000000Y-87000000D03*
D11*
X162500000Y-60000000D03*
D12*
X162500000Y-80320000D03*
D28*
X151460000Y-75500000D03*
D29*
X159080000Y-67880000D03*
X154000000Y-75500000D03*
X156540000Y-67880000D03*
X156540000Y-75500000D03*
X154000000Y-67880000D03*
X159080000Y-75500000D03*
X151460000Y-67880000D03*
D23*
X162000000Y-101500000D03*
X157000000Y-101500000D03*
D21*
X159000000Y-105500000D03*
D22*
X146300000Y-105500000D03*
D16*
X160000000Y-117000000D03*
X160000000Y-119540000D03*
D17*
X160000000Y-114460000D03*
D23*
X153300000Y-109300000D03*
D29*
X163460000Y-109300000D03*
D16*
X149000000Y-112000000D03*
X146460000Y-112000000D03*
D17*
X151540000Y-112000000D03*
D11*
X166500000Y-124500000D03*
D12*
X146180000Y-124500000D03*
D23*
X146000000Y-119000000D03*
D29*
X156160000Y-119000000D03*
D21*
X181700000Y-89900000D03*
D24*
X181700000Y-87360000D03*
M02*
