M48
;DRILL file {KiCad 4.0.6} date 05/25/17 10:10:01
;FORMAT={-:-/ absolute / metric / decimal}
FMAT,2
METRIC,TZ
T1C0.600
T2C0.800
T3C1.400
%
G90
G05
M71
T1
X142.24Y-71.12
X143.51Y-71.12
X144.78Y-71.12
T2
X140.97Y-53.34
X140.97Y-62.23
X145.97Y-62.23
X148.59Y-62.23
X149.86Y-71.12
X154.86Y-71.12
X156.21Y-53.34
X160.02Y-53.34
X160.02Y-76.2
X160.02Y-81.2
X163.83Y-62.23
X175.26Y-53.34
X179.07Y-53.34
X194.31Y-53.34
T3
X170.18Y-59.69
X177.8Y-59.69
X184.15Y-78.74
X185.42Y-62.35
X185.42Y-69.85
X191.77Y-78.74
T0
M30
