G04 #@! TF.FileFunction,Legend,Top*
%FSLAX46Y46*%
G04 Gerber Fmt 4.6, Leading zero omitted, Abs format (unit mm)*
G04 Created by KiCad (PCBNEW 4.0.6) date 05/24/17 23:06:32*
%MOMM*%
%LPD*%
G01*
G04 APERTURE LIST*
%ADD10C,0.100000*%
%ADD11C,0.120000*%
%ADD12C,0.150000*%
G04 APERTURE END LIST*
D10*
D11*
X161000943Y-81630162D02*
G75*
G03X161000000Y-75769522I-980943J2930162D01*
G01*
X159039057Y-81630162D02*
G75*
G02X159040000Y-75769522I980943J2930162D01*
G01*
X160020000Y-74000000D02*
X160020000Y-75200000D01*
X160670000Y-74600000D02*
X159370000Y-74600000D01*
X154756863Y-70138600D02*
G75*
G03X149962564Y-70140000I-2396863J-981400D01*
G01*
X154756863Y-72101400D02*
G75*
G02X149962564Y-72100000I-2396863J981400D01*
G01*
X147660000Y-71120000D02*
X148860000Y-71120000D01*
X148260000Y-70470000D02*
X148260000Y-71770000D01*
X146400162Y-61249057D02*
G75*
G03X140539522Y-61250000I-2930162J-980943D01*
G01*
X146400162Y-63210943D02*
G75*
G02X140539522Y-63210000I-2930162J980943D01*
G01*
X138770000Y-62230000D02*
X139970000Y-62230000D01*
X139370000Y-61580000D02*
X139370000Y-62880000D01*
X183340000Y-73680000D02*
X195500000Y-73680000D01*
X195500000Y-73680000D02*
X195500000Y-58520000D01*
X195500000Y-58520000D02*
X183340000Y-58520000D01*
X183340000Y-58520000D02*
X183340000Y-73680000D01*
X194000000Y-73680000D02*
X192200000Y-73680000D01*
X192200000Y-73680000D02*
X192200000Y-58520000D01*
X192200000Y-58520000D02*
X194000000Y-58520000D01*
X194000000Y-58520000D02*
X194000000Y-73680000D01*
X195500000Y-70850000D02*
X195500000Y-68850000D01*
X195500000Y-68850000D02*
X194000000Y-69100000D01*
X194000000Y-69100000D02*
X194000000Y-70600000D01*
X194000000Y-70600000D02*
X195500000Y-70850000D01*
X195500000Y-63350000D02*
X195500000Y-61350000D01*
X195500000Y-61350000D02*
X194000000Y-61600000D01*
X194000000Y-61600000D02*
X194000000Y-63100000D01*
X194000000Y-63100000D02*
X195500000Y-63350000D01*
X182540000Y-69550000D02*
X183140000Y-69850000D01*
X183140000Y-69850000D02*
X182540000Y-70150000D01*
X182540000Y-70150000D02*
X182540000Y-69550000D01*
X166290000Y-57610000D02*
X166290000Y-69770000D01*
X166290000Y-69770000D02*
X181690000Y-69770000D01*
X181690000Y-69770000D02*
X181690000Y-57610000D01*
X181690000Y-57610000D02*
X166290000Y-57610000D01*
X166290000Y-68270000D02*
X166290000Y-66470000D01*
X166290000Y-66470000D02*
X181690000Y-66470000D01*
X181690000Y-66470000D02*
X181690000Y-68270000D01*
X181690000Y-68270000D02*
X166290000Y-68270000D01*
X169180000Y-69770000D02*
X171180000Y-69770000D01*
X171180000Y-69770000D02*
X170930000Y-68270000D01*
X170930000Y-68270000D02*
X169430000Y-68270000D01*
X169430000Y-68270000D02*
X169180000Y-69770000D01*
X176800000Y-69770000D02*
X178800000Y-69770000D01*
X178800000Y-69770000D02*
X178550000Y-68270000D01*
X178550000Y-68270000D02*
X177050000Y-68270000D01*
X177050000Y-68270000D02*
X176800000Y-69770000D01*
X170480000Y-56810000D02*
X170180000Y-57410000D01*
X170180000Y-57410000D02*
X169880000Y-56810000D01*
X169880000Y-56810000D02*
X170480000Y-56810000D01*
X141710000Y-72970000D02*
X145310000Y-72970000D01*
X141671522Y-72958478D02*
G75*
G02X143510000Y-68520000I1838478J1838478D01*
G01*
X145348478Y-72958478D02*
G75*
G03X143510000Y-68520000I-1838478J1838478D01*
G01*
X163080000Y-51680000D02*
X163080000Y-55000000D01*
X163080000Y-55000000D02*
X172200000Y-55000000D01*
X172200000Y-55000000D02*
X172200000Y-51680000D01*
X172200000Y-51680000D02*
X163080000Y-51680000D01*
X161000000Y-53340000D02*
X163080000Y-53340000D01*
X174280000Y-53340000D02*
X172200000Y-53340000D01*
X182130000Y-51680000D02*
X182130000Y-55000000D01*
X182130000Y-55000000D02*
X191250000Y-55000000D01*
X191250000Y-55000000D02*
X191250000Y-51680000D01*
X191250000Y-51680000D02*
X182130000Y-51680000D01*
X180050000Y-53340000D02*
X182130000Y-53340000D01*
X193330000Y-53340000D02*
X191250000Y-53340000D01*
X153150000Y-55000000D02*
X153150000Y-51680000D01*
X153150000Y-51680000D02*
X144030000Y-51680000D01*
X144030000Y-51680000D02*
X144030000Y-55000000D01*
X144030000Y-55000000D02*
X153150000Y-55000000D01*
X155230000Y-53340000D02*
X153150000Y-53340000D01*
X141950000Y-53340000D02*
X144030000Y-53340000D01*
X151650000Y-60570000D02*
X151650000Y-63890000D01*
X151650000Y-63890000D02*
X160770000Y-63890000D01*
X160770000Y-63890000D02*
X160770000Y-60570000D01*
X160770000Y-60570000D02*
X151650000Y-60570000D01*
X149570000Y-62230000D02*
X151650000Y-62230000D01*
X162850000Y-62230000D02*
X160770000Y-62230000D01*
X180260000Y-76660000D02*
X180260000Y-88820000D01*
X180260000Y-88820000D02*
X195660000Y-88820000D01*
X195660000Y-88820000D02*
X195660000Y-76660000D01*
X195660000Y-76660000D02*
X180260000Y-76660000D01*
X180260000Y-87320000D02*
X180260000Y-85520000D01*
X180260000Y-85520000D02*
X195660000Y-85520000D01*
X195660000Y-85520000D02*
X195660000Y-87320000D01*
X195660000Y-87320000D02*
X180260000Y-87320000D01*
X183150000Y-88820000D02*
X185150000Y-88820000D01*
X185150000Y-88820000D02*
X184900000Y-87320000D01*
X184900000Y-87320000D02*
X183400000Y-87320000D01*
X183400000Y-87320000D02*
X183150000Y-88820000D01*
X190770000Y-88820000D02*
X192770000Y-88820000D01*
X192770000Y-88820000D02*
X192520000Y-87320000D01*
X192520000Y-87320000D02*
X191020000Y-87320000D01*
X191020000Y-87320000D02*
X190770000Y-88820000D01*
X184450000Y-75860000D02*
X184150000Y-76460000D01*
X184150000Y-76460000D02*
X183850000Y-75860000D01*
X183850000Y-75860000D02*
X184450000Y-75860000D01*
D12*
X164437143Y-78866666D02*
X164484762Y-78914285D01*
X164532381Y-79057142D01*
X164532381Y-79152380D01*
X164484762Y-79295238D01*
X164389524Y-79390476D01*
X164294286Y-79438095D01*
X164103810Y-79485714D01*
X163960952Y-79485714D01*
X163770476Y-79438095D01*
X163675238Y-79390476D01*
X163580000Y-79295238D01*
X163532381Y-79152380D01*
X163532381Y-79057142D01*
X163580000Y-78914285D01*
X163627619Y-78866666D01*
X164532381Y-77914285D02*
X164532381Y-78485714D01*
X164532381Y-78200000D02*
X163532381Y-78200000D01*
X163675238Y-78295238D01*
X163770476Y-78390476D01*
X163818095Y-78485714D01*
X152193334Y-67917143D02*
X152145715Y-67964762D01*
X152002858Y-68012381D01*
X151907620Y-68012381D01*
X151764762Y-67964762D01*
X151669524Y-67869524D01*
X151621905Y-67774286D01*
X151574286Y-67583810D01*
X151574286Y-67440952D01*
X151621905Y-67250476D01*
X151669524Y-67155238D01*
X151764762Y-67060000D01*
X151907620Y-67012381D01*
X152002858Y-67012381D01*
X152145715Y-67060000D01*
X152193334Y-67107619D01*
X152574286Y-67107619D02*
X152621905Y-67060000D01*
X152717143Y-67012381D01*
X152955239Y-67012381D01*
X153050477Y-67060000D01*
X153098096Y-67107619D01*
X153145715Y-67202857D01*
X153145715Y-67298095D01*
X153098096Y-67440952D01*
X152526667Y-68012381D01*
X153145715Y-68012381D01*
X143303334Y-58527143D02*
X143255715Y-58574762D01*
X143112858Y-58622381D01*
X143017620Y-58622381D01*
X142874762Y-58574762D01*
X142779524Y-58479524D01*
X142731905Y-58384286D01*
X142684286Y-58193810D01*
X142684286Y-58050952D01*
X142731905Y-57860476D01*
X142779524Y-57765238D01*
X142874762Y-57670000D01*
X143017620Y-57622381D01*
X143112858Y-57622381D01*
X143255715Y-57670000D01*
X143303334Y-57717619D01*
X143636667Y-57622381D02*
X144255715Y-57622381D01*
X143922381Y-58003333D01*
X144065239Y-58003333D01*
X144160477Y-58050952D01*
X144208096Y-58098571D01*
X144255715Y-58193810D01*
X144255715Y-58431905D01*
X144208096Y-58527143D01*
X144160477Y-58574762D01*
X144065239Y-58622381D01*
X143779524Y-58622381D01*
X143684286Y-58574762D01*
X143636667Y-58527143D01*
X181872381Y-65433333D02*
X182586667Y-65433333D01*
X182729524Y-65480953D01*
X182824762Y-65576191D01*
X182872381Y-65719048D01*
X182872381Y-65814286D01*
X182872381Y-64433333D02*
X182872381Y-65004762D01*
X182872381Y-64719048D02*
X181872381Y-64719048D01*
X182015238Y-64814286D01*
X182110476Y-64909524D01*
X182158095Y-65004762D01*
X174656667Y-56142381D02*
X174656667Y-56856667D01*
X174609047Y-56999524D01*
X174513809Y-57094762D01*
X174370952Y-57142381D01*
X174275714Y-57142381D01*
X175085238Y-56237619D02*
X175132857Y-56190000D01*
X175228095Y-56142381D01*
X175466191Y-56142381D01*
X175561429Y-56190000D01*
X175609048Y-56237619D01*
X175656667Y-56332857D01*
X175656667Y-56428095D01*
X175609048Y-56570952D01*
X175037619Y-57142381D01*
X175656667Y-57142381D01*
X143414762Y-68107619D02*
X143319524Y-68060000D01*
X143224286Y-67964762D01*
X143081429Y-67821905D01*
X142986190Y-67774286D01*
X142890952Y-67774286D01*
X142938571Y-68012381D02*
X142843333Y-67964762D01*
X142748095Y-67869524D01*
X142700476Y-67679048D01*
X142700476Y-67345714D01*
X142748095Y-67155238D01*
X142843333Y-67060000D01*
X142938571Y-67012381D01*
X143129048Y-67012381D01*
X143224286Y-67060000D01*
X143319524Y-67155238D01*
X143367143Y-67345714D01*
X143367143Y-67679048D01*
X143319524Y-67869524D01*
X143224286Y-67964762D01*
X143129048Y-68012381D01*
X142938571Y-68012381D01*
X144319524Y-68012381D02*
X143748095Y-68012381D01*
X144033809Y-68012381D02*
X144033809Y-67012381D01*
X143938571Y-67155238D01*
X143843333Y-67250476D01*
X143748095Y-67298095D01*
X167473334Y-51132381D02*
X167140000Y-50656190D01*
X166901905Y-51132381D02*
X166901905Y-50132381D01*
X167282858Y-50132381D01*
X167378096Y-50180000D01*
X167425715Y-50227619D01*
X167473334Y-50322857D01*
X167473334Y-50465714D01*
X167425715Y-50560952D01*
X167378096Y-50608571D01*
X167282858Y-50656190D01*
X166901905Y-50656190D01*
X168425715Y-51132381D02*
X167854286Y-51132381D01*
X168140000Y-51132381D02*
X168140000Y-50132381D01*
X168044762Y-50275238D01*
X167949524Y-50370476D01*
X167854286Y-50418095D01*
X186523334Y-51132381D02*
X186190000Y-50656190D01*
X185951905Y-51132381D02*
X185951905Y-50132381D01*
X186332858Y-50132381D01*
X186428096Y-50180000D01*
X186475715Y-50227619D01*
X186523334Y-50322857D01*
X186523334Y-50465714D01*
X186475715Y-50560952D01*
X186428096Y-50608571D01*
X186332858Y-50656190D01*
X185951905Y-50656190D01*
X186904286Y-50227619D02*
X186951905Y-50180000D01*
X187047143Y-50132381D01*
X187285239Y-50132381D01*
X187380477Y-50180000D01*
X187428096Y-50227619D01*
X187475715Y-50322857D01*
X187475715Y-50418095D01*
X187428096Y-50560952D01*
X186856667Y-51132381D01*
X187475715Y-51132381D01*
X148423334Y-56452381D02*
X148090000Y-55976190D01*
X147851905Y-56452381D02*
X147851905Y-55452381D01*
X148232858Y-55452381D01*
X148328096Y-55500000D01*
X148375715Y-55547619D01*
X148423334Y-55642857D01*
X148423334Y-55785714D01*
X148375715Y-55880952D01*
X148328096Y-55928571D01*
X148232858Y-55976190D01*
X147851905Y-55976190D01*
X148756667Y-55452381D02*
X149375715Y-55452381D01*
X149042381Y-55833333D01*
X149185239Y-55833333D01*
X149280477Y-55880952D01*
X149328096Y-55928571D01*
X149375715Y-56023810D01*
X149375715Y-56261905D01*
X149328096Y-56357143D01*
X149280477Y-56404762D01*
X149185239Y-56452381D01*
X148899524Y-56452381D01*
X148804286Y-56404762D01*
X148756667Y-56357143D01*
X156043334Y-60022381D02*
X155710000Y-59546190D01*
X155471905Y-60022381D02*
X155471905Y-59022381D01*
X155852858Y-59022381D01*
X155948096Y-59070000D01*
X155995715Y-59117619D01*
X156043334Y-59212857D01*
X156043334Y-59355714D01*
X155995715Y-59450952D01*
X155948096Y-59498571D01*
X155852858Y-59546190D01*
X155471905Y-59546190D01*
X156900477Y-59355714D02*
X156900477Y-60022381D01*
X156662381Y-58974762D02*
X156424286Y-59689048D01*
X157043334Y-59689048D01*
X188626667Y-75192381D02*
X188626667Y-75906667D01*
X188579047Y-76049524D01*
X188483809Y-76144762D01*
X188340952Y-76192381D01*
X188245714Y-76192381D01*
X189007619Y-75192381D02*
X189626667Y-75192381D01*
X189293333Y-75573333D01*
X189436191Y-75573333D01*
X189531429Y-75620952D01*
X189579048Y-75668571D01*
X189626667Y-75763810D01*
X189626667Y-76001905D01*
X189579048Y-76097143D01*
X189531429Y-76144762D01*
X189436191Y-76192381D01*
X189150476Y-76192381D01*
X189055238Y-76144762D01*
X189007619Y-76097143D01*
M02*
